<svg xmlns="http://www.w3.org/2000/svg" width="24" height="24" fill="none"><path fill="#64748B" fill-rule="evenodd" d="M5 4a3 3 0 0 0-3 3v10a3 3 0 0 0 3 3h8v-2H5a1 1 0 0 1-1-1V7a1 1 0 0 1 1-1h2.784a1 1 0 0 1 .635.227l2.393 1.966a3 3 0 0 0 1.904.682H19a1 1 0 0 1 1 1V10h2v-.125a3 3 0 0 0-3-3h-6.284a1 1 0 0 1-.635-.227L9.688 4.682A3 3 0 0 0 7.784 4z" clip-rule="evenodd"/><path fill="#C084FC" fill-rule="evenodd" d="M19.888 12a.6.6 0 0 0-.201.036.57.57 0 0 1 .24.336c.002.018.008.03.01.049l.005.046c.01.228-.06.256-.108.39a.55.55 0 0 0 .036.51.3.3 0 0 0 .031.056c-.098-.653.447-.751.547-.956.008-.178-.139-.297-.255-.38a.57.57 0 0 0-.305-.087m.821.147c-.01.06-.002.044-.005.075-.002.02-.002.047-.005.067l-.018.062-.02.062-.03.06-.02.03-.015.024-.039.052q-.02.025-.046.046v.003c-.016.012-.031.028-.05.04-.054.042-.116.073-.173.112-.018.013-.036.023-.051.039a.4.4 0 0 0-.05.041q-.024.023-.046.049-.021.024-.038.052-.02.027-.037.054l-.028.06q-.013.029-.02.059l-.019.064-.005.034-.005.03-.003.065q0 .023.003.047 0 .03.008.064.004.032.012.062l.021.062.018.037-.594-.23a6 6 0 0 0-.3-.078l-.162-.039a5 5 0 0 0-.47-.07l-.013-.002a4.6 4.6 0 0 0-1.273.047l-.116.02q-.12.024-.233.052l-.116.031q-.058.024-.111.05l-.085.038q-.008.002-.013.005-.039.018-.073.036l-.018.008-.08.041q-.028.013-.051.026l-.023.013-.068.039-.062.038q-.028.018-.051.037l-.008.005-.05.036-.004.005-.039.031-.015.01-.04.034q-.004.007-.01.01-.022.023-.046.044-.003.001-.005.005-.024.02-.047.044-.002.005-.005.005-.02.019-.039.042l-.018.015q-.02.024-.044.047l-.01.013-.06.062-.007.007a2 2 0 0 1-.132.127q-.07.062-.144.114-.076.053-.155.098a2 2 0 0 1-.33.14c-.11.022-.22.066-.316.074q-.032.002-.065.008l-.064.015-.062.024q-.03.012-.062.028l-.057.036a.4.4 0 0 0-.051.044.4.4 0 0 0-.052.046q-.024.026-.044.052-.021.03-.039.06l-.036.059-.028.067-.024.067-.013.062-.002.008c-.005.023-.005.054-.008.07q-.004.025-.005.051 0 .017.003.034a.3.3 0 0 0 .028.095v.003l.028.046.034.047.044.041a.4.4 0 0 0 .049.042c.062.054.077.072.158.113l.04.02.009.004.002.012q.005.032.013.062a.4.4 0 0 0 .02.062l.021.047.008.013q.015.03.031.057l.039.054.044.049q.021.021.049.044l.005.002a.54.54 0 0 0 .214.117l.01.005.034.007c-.007.14-.01.272.01.318.024.052.137-.106.251-.287-.015.179-.026.388 0 .45.028.064.183-.137.318-.36a2.985 2.985 0 0 1 3.677 2.63c-.033-.28-.377-.434-.534-.395-.078.19-.21.436-.421.588.018-.17.01-.345-.026-.516a1.7 1.7 0 0 1-.32.65.72.72 0 0 1-.62-.278c-.01-.008-.013-.023-.02-.034l-.021-.054a.2.2 0 0 1-.016-.054q-.004-.026-.003-.057v-.039q.005-.027.013-.054t.018-.054q.013-.027.031-.054c.044-.124.044-.225-.036-.284a.3.3 0 0 0-.049-.026l-.033-.01-.021-.008q-.027-.008-.054-.013a.2.2 0 0 0-.055-.008l-.056-.005-.04.002a.2.2 0 0 0-.056.008l-.054.01q-.027.007-.054.019l-.052.023q-.022.013-.05.026c-.6.392-.242 1.312.169 1.578-.155.028-.313.062-.357.095l-.005.005q.166.1.349.173c.165.055.34.104.418.124v.003q.322.066.651.046a2.456 2.456 0 0 0 2.252-2.097l.015.067c.008.047.019.096.024.145v.003q.007.035.01.067v.01l.005.067q.005.043.005.085v.042l.003.041-.003.047v.036l-.002.052q0 .014-.003.033l-.002.057q-.004.011-.003.023l-.008.06-.002.023-.01.075v.005l-.016.072v.008l-.016.07-.002.01q-.007.034-.018.07v.007q-.013.039-.02.073-.004.004-.003.005l-.024.077-.028.075q-.014.04-.029.075l-.03.075h-.003c-.01.023-.02.05-.034.072q-.003.011-.008.018l-.005.008a2.44 2.44 0 0 1-.725.868q-.032.02-.062.044l-.018.013q-.027.02-.057.038l.008.016h.002l.109-.016h.002a6 6 0 0 0 .258-.049l.037-.007.054-.01q.022-.008.046-.014.39-.095.75-.248a4.14 4.14 0 0 1-1.604 1.31c.297-.02.593-.07.88-.153a4.13 4.13 0 0 0 2.44-1.95 4.1 4.1 0 0 1-.694 1.661 4.07 4.07 0 0 0 1.777-2.768c.088.408.113.829.075 1.244 1.864-2.6.154-5.296-.56-6.006q-.005-.007-.006-.013-.004.002-.003.005 0-.003-.002-.005-.001.046-.005.093l-.026.173q-.02.084-.044.17a2 2 0 0 1-.062.165q-.035.079-.078.158a2 2 0 0 1-.198.287q-.06.068-.122.129-.037.034-.075.064l-.059.052q-.068.054-.145.1a2 2 0 0 1-.315.16 2 2 0 0 1-.34.094q-.091.014-.176.02l-.124.005a2 2 0 0 1-.524-.08h-.003q.086-.006.17-.02a1.9 1.9 0 0 0 .659-.25q.074-.05.145-.104t.131-.116q.065-.06.122-.127.058-.07.108-.14l.016-.025q.039-.062.075-.124a2 2 0 0 0 .139-.323q.026-.081.044-.168.016-.089.026-.173.009-.09.01-.175a2 2 0 0 0-.026-.297 2 2 0 0 0-.038-.173l-.057-.166a1.8 1.8 0 0 0-.264-.454q-.057-.066-.118-.132c-.021-.02-.044-.044-.068-.064a5 5 0 0 0-.359-.254l-.051-.025a1 1 0 0 0-.246-.109" clip-rule="evenodd"/></svg>