<svg xmlns="http://www.w3.org/2000/svg" width="24" height="24" fill="none"><path fill="#64748B" fill-rule="evenodd" d="M5 4a3 3 0 0 0-3 3v10a3 3 0 0 0 3 3h5v-2H5a1 1 0 0 1-1-1V7a1 1 0 0 1 1-1h2.784a1 1 0 0 1 .635.227l2.393 1.966a3 3 0 0 0 1.904.682H19a1 1 0 0 1 1 1V10h2v-.125a3 3 0 0 0-3-3h-6.284a1 1 0 0 1-.635-.227L9.688 4.682A3 3 0 0 0 7.784 4z" clip-rule="evenodd"/><path stroke="#16A34A" stroke-linecap="round" stroke-linejoin="round" stroke-width="1.5" d="M15.146 13.797 13 15.943l2.146 2.146m5.931-4.292 2.145 2.146-2.145 2.146m-4.516 1.431 3.1-7.153"/></svg>