<svg xmlns="http://www.w3.org/2000/svg" width="24" height="24" fill="none"><path fill="#64748B" fill-rule="evenodd" d="M5 4a3 3 0 0 0-3 3v10a3 3 0 0 0 3 3h8v-2H5a1 1 0 0 1-1-1V7a1 1 0 0 1 1-1h2.784a1 1 0 0 1 .635.227l2.393 1.966a3 3 0 0 0 1.904.682H19a1 1 0 0 1 1 1V10h2v-.125a3 3 0 0 0-3-3h-6.284a1 1 0 0 1-.635-.227L9.688 4.682A3 3 0 0 0 7.784 4z" clip-rule="evenodd"/><path fill="#F87171" fill-rule="evenodd" d="M16 12a1 1 0 0 0-1 1v1.556a1 1 0 0 0 1 1h1.556a1 1 0 0 0 1-1V13a1 1 0 0 0-1-1zm0 4.444a1 1 0 0 0-1 1V19a1 1 0 0 0 1 1h1.556a1 1 0 0 0 1-1v-1.556a1 1 0 0 0-1-1zM19.444 13a1 1 0 0 1 1-1H22a1 1 0 0 1 1 1v1.556a1 1 0 0 1-1 1h-1.556a1 1 0 0 1-1-1zm1 3.444a1 1 0 0 0-1 1V19a1 1 0 0 0 1 1H22a1 1 0 0 0 1-1v-1.556a1 1 0 0 0-1-1z" clip-rule="evenodd"/></svg>