<svg xmlns="http://www.w3.org/2000/svg" width="24" height="24" fill="none"><path fill="#64748B" fill-rule="evenodd" d="M5 4a3 3 0 0 0-3 3v10a3 3 0 0 0 3 3h8v-2H5a1 1 0 0 1-1-1V7a1 1 0 0 1 1-1h2.784a1 1 0 0 1 .635.227l2.393 1.966a3 3 0 0 0 1.904.682H19a1 1 0 0 1 1 1V10h2v-.125a3 3 0 0 0-3-3h-6.284a1 1 0 0 1-.635-.227L9.688 4.682A3 3 0 0 0 7.784 4z" clip-rule="evenodd"/><path fill="#C084FC" fill-rule="evenodd" d="M19 14.889a1.111 1.111 0 1 0 0 2.222 1.111 1.111 0 0 0 0-2.222M16.778 16a2.222 2.222 0 1 1 4.444 0 2.222 2.222 0 0 1-4.444 0" clip-rule="evenodd"/><path fill="#C084FC" fill-rule="evenodd" d="M19 12.111a3.889 3.889 0 1 0 0 7.778 3.889 3.889 0 0 0 0-7.778M14 16a5 5 0 1 1 10 0 5 5 0 0 1-10 0" clip-rule="evenodd"/></svg>