<svg xmlns="http://www.w3.org/2000/svg" width="24" height="24" fill="none"><path fill="#64748B" fill-rule="evenodd" d="M5 4a3 3 0 0 0-3 3v10a3 3 0 0 0 3 3h5.448v-2H5a1 1 0 0 1-1-1V7a1 1 0 0 1 1-1h2.784a1 1 0 0 1 .635.227l2.393 1.966a3 3 0 0 0 1.904.682H19a1 1 0 0 1 1 1V10h2v-.125a3 3 0 0 0-3-3h-6.284a1 1 0 0 1-.635-.227L9.688 4.682A3 3 0 0 0 7.784 4z" clip-rule="evenodd"/><path fill="#4ADE80" stroke="#4ADE80" stroke-width=".25" d="M13.95 14.654a.566.566 0 0 0-.216-.777.58.58 0 0 0-.782.217l-1.441 2.515a.566.566 0 0 0 .215.777.58.58 0 0 0 .782-.216zm3.607-1.929a.566.566 0 0 0-.215-.777.58.58 0 0 0-.783.217l-1.441 2.515a.566.566 0 0 0 .215.778.58.58 0 0 0 .783-.217zm5.781 0a.566.566 0 0 0-.215-.777.58.58 0 0 0-.783.217l-1.44 2.516a.566.566 0 0 0 .215.777.58.58 0 0 0 .783-.217zm-3.608 1.93a.566.566 0 0 0-.215-.778.58.58 0 0 0-.782.217l-1.442 2.515a.566.566 0 0 0 .215.777.58.58 0 0 0 .783-.216z"/></svg>