<svg xmlns="http://www.w3.org/2000/svg" width="24" height="24" fill="none"><path stroke="#16A34A" stroke-linecap="round" stroke-linejoin="round" stroke-width="1.7" d="M14 14.625V12h2.625m3.5 0h2.625v2.625"/><path stroke="#16A34A" stroke-linecap="round" stroke-linejoin="round" stroke-width="1.7" d="m14 12 3.862 3.862c.329.328.513.773.513 1.237m0 0V20m0-2.9c0-.465.184-.91.513-1.238L22.75 12"/><path fill="#64748B" fill-rule="evenodd" d="M5 4a3 3 0 0 0-3 3v10a3 3 0 0 0 3 3h8v-2H5a1 1 0 0 1-1-1V7a1 1 0 0 1 1-1h2.784a1 1 0 0 1 .635.227l2.393 1.966a3 3 0 0 0 1.904.682H19a1 1 0 0 1 1 1V10h2v-.125a3 3 0 0 0-3-3h-6.284a1 1 0 0 1-.635-.227L9.688 4.682A3 3 0 0 0 7.784 4z" clip-rule="evenodd"/></svg>