<svg xmlns="http://www.w3.org/2000/svg" width="24" height="24" fill="none"><path fill="#64748B" fill-rule="evenodd" d="M5 4a3 3 0 0 0-3 3v10a3 3 0 0 0 3 3h8v-2H5a1 1 0 0 1-1-1V7a1 1 0 0 1 1-1h2.784a1 1 0 0 1 .635.227l2.393 1.966a3 3 0 0 0 1.904.682H19a1 1 0 0 1 1 1V10h2v-.125a3 3 0 0 0-3-3h-6.284a1 1 0 0 1-.635-.227L9.688 4.682A3 3 0 0 0 7.784 4z" clip-rule="evenodd"/><path fill="#14B8A6" fill-rule="evenodd" d="M15.076 17.737a.49.49 0 0 1-.004-.517l3.67-5.987a.489.489 0 0 1 .86.051l3.353 7.273a.49.49 0 0 1-.303.672l-5.216 1.565a.49.49 0 0 1-.553-.207zm4.09-4.753a.183.183 0 0 1 .347-.037l2.313 5.351c.043.1-.01.217-.116.248l-3.603 1.076a.183.183 0 0 1-.232-.212z" clip-rule="evenodd"/></svg>