<svg xmlns="http://www.w3.org/2000/svg" xmlns:xlink="http://www.w3.org/1999/xlink" width="24" height="24" fill="none"><path fill="url(#a)" d="M19.262 20.07c-.236.275-.716.125-.721-.227l-.083-5.144h3.734c.677 0 1.054.724.633 1.213z"/><path fill="url(#b)" d="M19.262 20.07c-.236.275-.716.125-.721-.227l-.083-5.144h3.734c.677 0 1.054.724.633 1.213z"/><path fill="#3ECF8E" d="M17.743 11.794c.237-.275.715-.125.72.227l.037 5.143h-3.688c-.677 0-1.054-.724-.633-1.213z"/><path fill="#64748B" fill-rule="evenodd" d="M5 4a3 3 0 0 0-3 3v10a3 3 0 0 0 3 3h8v-2H5a1 1 0 0 1-1-1V7a1 1 0 0 1 1-1h2.784a1 1 0 0 1 .635.227l2.393 1.966a3 3 0 0 0 1.904.682H19a1 1 0 0 1 1 1V10h2v-.125a3 3 0 0 0-3-3h-6.284a1 1 0 0 1-.635-.227L9.688 4.682A3 3 0 0 0 7.784 4z" clip-rule="evenodd"/><defs><linearGradient id="a" x1="18.458" x2="21.697" y1="15.84" y2="17.306" gradientUnits="userSpaceOnUse"><stop stop-color="#249361"/><stop offset="1" stop-color="#3ECF8E"/></linearGradient><linearGradient id="b" x1="16.986" x2="18.326" y1="13.974" y2="16.698" gradientUnits="userSpaceOnUse"><stop stop-opacity=".2"/><stop offset="1" stop-opacity="0"/></linearGradient></defs></svg>