<svg xmlns="http://www.w3.org/2000/svg" width="24" height="24" fill="none"><path fill="#64748B" fill-rule="evenodd" d="M5 4a3 3 0 0 0-3 3v10a3 3 0 0 0 3 3h8v-2H5a1 1 0 0 1-1-1V7a1 1 0 0 1 1-1h2.784a1 1 0 0 1 .635.227l2.393 1.966a3 3 0 0 0 1.904.682H19a1 1 0 0 1 1 1V10h2v-.125a3 3 0 0 0-3-3h-6.284a1 1 0 0 1-.635-.227L9.688 4.682A3 3 0 0 0 7.784 4z" clip-rule="evenodd"/><path fill="#C084FC" d="M23.938 14.273v-.003c-.01-.043-.181-.849-.412-.849-.177 0-.886.798-1.23 1.197a.648.648 0 1 1-.914-.914c.4-.344 1.197-1.053 1.197-1.23 0-.232-.819-.409-.851-.416h-.003a3 3 0 0 0-.567-.058c-1.568 0-2.842 1.287-2.842 2.869l.001.077c.01.333-.074.674-.312.908l-2.56 2.514a1.557 1.557 0 0 0 0 2.18c.29.291.674.452 1.085.452s.797-.161 1.08-.448l2.609-2.563c.215-.211.518-.307.82-.305h.119c1.593 0 2.842-1.236 2.842-2.815q0-.301-.062-.596"/></svg>