<svg xmlns="http://www.w3.org/2000/svg" width="24" height="24" fill="none"><path fill="#F59E0B" d="M23.854 11.854a.5.5 0 0 0-.707-.707l-.899.898a2.126 2.126 0 0 0-2.626.302l-.534.535a.875.875 0 0 0 0 1.236l1.793 1.793a.877.877 0 0 0 1.238 0l.534-.534a2.126 2.126 0 0 0 .302-2.625zm-5.5 4a.5.5 0 0 0-.707-.707l-.735.735-.147-.147a.375.375 0 0 0-.53 0l-.887.887a2.126 2.126 0 0 0-.303 2.625l-.899.9a.5.5 0 1 0 .707.707l.9-.899a2.126 2.126 0 0 0 2.625-.302l.887-.888a.375.375 0 0 0 0-.53l-.146-.146.735-.735a.5.5 0 0 0-.707-.707l-.735.735-.793-.794z"/><path fill="#64748B" fill-rule="evenodd" d="M5 4a3 3 0 0 0-3 3v10a3 3 0 0 0 3 3h8v-2H5a1 1 0 0 1-1-1V7a1 1 0 0 1 1-1h2.784a1 1 0 0 1 .635.227l2.393 1.966a3 3 0 0 0 1.904.682H19a1 1 0 0 1 1 1V10h2v-.125a3 3 0 0 0-3-3h-6.284a1 1 0 0 1-.635-.227L9.688 4.682A3 3 0 0 0 7.784 4z" clip-rule="evenodd"/></svg>