<svg xmlns="http://www.w3.org/2000/svg" width="24" height="24" fill="none"><path fill="#64748B" fill-rule="evenodd" d="M5 4a3 3 0 0 0-3 3v10a3 3 0 0 0 3 3h8v-2H5a1 1 0 0 1-1-1V7a1 1 0 0 1 1-1h2.784a1 1 0 0 1 .635.227l2.393 1.966a3 3 0 0 0 1.904.682H19a1 1 0 0 1 1 1V10h2v-.125a3 3 0 0 0-3-3h-6.284a1 1 0 0 1-.635-.227L9.688 4.682A3 3 0 0 0 7.784 4z" clip-rule="evenodd"/><path fill="#4ADE80" fill-rule="evenodd" d="m23.102 12.11-1.083 1.083a5.03 5.03 0 0 1 1.811 3.864v.97a.546.546 0 0 1-.546.545h-8.88c-.219 0-.645 0-.645-.546v-.969c0-1.55.704-2.94 1.81-3.864l-1.082-1.083a.546.546 0 0 1 .772-.771l1.238 1.238a5 5 0 0 1 2.297-.556c.827 0 1.608.2 2.298.556l1.238-1.238a.546.546 0 0 1 .772.771m-8.252 4.947v.424h7.889v-.424a3.95 3.95 0 0 0-3.945-3.944 3.95 3.95 0 0 0-3.944 3.944m2.49-1.113a.464.464 0 1 0 0-.927.464.464 0 0 0 0 .927m3.446-.538a.464.464 0 1 1-.928 0 .464.464 0 0 1 .928 0" clip-rule="evenodd"/><path fill="#4ADE80" d="m22.02 13.193-.107-.106a.15.15 0 0 0 .01.22zm1.082-1.083-.107-.106zm-7.533 1.083.097.115a.15.15 0 0 0 .01-.221zm-1.082-1.083-.106.107zm0-.771-.106-.106zm.772 0 .106-.106zm1.238 1.238-.106.106a.15.15 0 0 0 .175.027zm4.595 0-.069.133a.15.15 0 0 0 .175-.027zm1.238-1.238-.106-.106zm.772 0 .106-.106zM14.85 17.48h-.15c0 .082.067.15.15.15zm7.889 0v.15a.15.15 0 0 0 .15-.15zm-.614-4.182 1.083-1.082-.212-.213-1.083 1.083zm1.855 3.758a5.18 5.18 0 0 0-1.864-3.98l-.193.23a4.88 4.88 0 0 1 1.757 3.75zm0 .97v-.97h-.3v.97zm-.696.695a.696.696 0 0 0 .696-.696h-.3a.396.396 0 0 1-.396.396zm-8.88 0h8.88v-.3h-8.88zm-.795-.696q0 .233.09.39a.55.55 0 0 0 .232.221c.171.088.369.085.472.085v-.3c-.114 0-.239-.003-.336-.052a.25.25 0 0 1-.108-.102.5.5 0 0 1-.05-.242zm0-.969v.97h.3v-.97zm1.864-3.98a5.18 5.18 0 0 0-1.864 3.98h.3c0-1.504.683-2.852 1.757-3.75zm-1.092-.86 1.082 1.082.213-.212-1.083-1.083zm0-.984a.696.696 0 0 0 0 .983l.212-.212a.396.396 0 0 1 0-.56zm.984 0a.696.696 0 0 0-.984 0l.212.212a.396.396 0 0 1 .56 0zm1.238 1.238-1.238-1.238-.212.212 1.238 1.238zm2.191-.6c-.851 0-1.656.207-2.366.572l.138.267a4.86 4.86 0 0 1 2.228-.539zm2.366.572a5.16 5.16 0 0 0-2.366-.572v.3c.803 0 1.56.195 2.229.539zm1.064-1.21-1.238 1.238.212.212 1.238-1.238zm.984 0a.696.696 0 0 0-.984 0l.212.212a.396.396 0 0 1 .56 0zm0 .983a.696.696 0 0 0 0-.983l-.213.212a.396.396 0 0 1 0 .56zM15 17.482v-.424h-.3v.424zm7.739-.15h-7.89v.3h7.89zm-.15-.274v.424h.3v-.424zm-3.795-3.794a3.8 3.8 0 0 1 3.795 3.794h.3a4.1 4.1 0 0 0-4.095-4.094zM15 17.057a3.8 3.8 0 0 1 3.794-3.794v-.3a4.1 4.1 0 0 0-4.094 4.094zm2.653-1.577c0 .174-.14.314-.313.314v.3a.613.613 0 0 0 .613-.614zm-.313-.314c.173 0 .313.14.313.314h.3a.614.614 0 0 0-.613-.614zm-.314.314c0-.173.14-.314.314-.314v-.3a.614.614 0 0 0-.614.614zm.314.314a.314.314 0 0 1-.314-.314h-.3c0 .34.274.614.614.614zm2.982.226a.614.614 0 0 0 .614-.614h-.3c0 .173-.14.314-.314.314zm-.614-.614c0 .34.275.614.614.614v-.3a.314.314 0 0 1-.314-.314zm.614-.614a.614.614 0 0 0-.614.614h.3c0-.173.14-.314.314-.314zm.614.614a.614.614 0 0 0-.614-.614v.3c.174 0 .314.14.314.314z"/></svg>