<svg xmlns="http://www.w3.org/2000/svg" width="24" height="24" fill="none"><path fill="#F87171" stroke="#F87171" stroke-width=".25" d="M20.39 16.636a.608.608 0 0 0-.065-1.212h-.022a.605.605 0 0 0-.411 1.028c-.368.724-.93 1.254-1.774 1.698a2.93 2.93 0 0 1-1.763.335c-.487-.064-.865-.28-1.103-.638-.346-.53-.379-1.103-.087-1.677.206-.41.53-.713.736-.865a6 6 0 0 1-.14-.551c-1.57 1.135-1.407 2.671-.931 3.396.357.54 1.082.876 1.882.876.216 0 .433-.021.649-.075 1.384-.27 2.434-1.093 3.029-2.315Zm1.903-1.342c-.822-.962-2.033-1.492-3.418-1.492h-.173a.59.59 0 0 0-.53-.325h-.021a.605.605 0 0 0 .021 1.212h.022a.61.61 0 0 0 .53-.368h.195c.822 0 1.6.238 2.303.703.541.357.93.822 1.147 1.385.184.454.173.897-.022 1.276-.303.573-.81.887-1.482.887a2.8 2.8 0 0 1-1.06-.227 6 6 0 0 1-.486.39 3.3 3.3 0 0 0 1.395.335c1.039 0 1.806-.574 2.099-1.147.313-.627.292-1.71-.52-2.629ZM16.8 16.82c.01.324.28.584.605.584h.022a.605.605 0 0 0-.022-1.212h-.021c-.022 0-.055 0-.076.01a3.96 3.96 0 0 1-.563-2.4c.044-.65.26-1.212.639-1.677.313-.4.919-.595 1.33-.606 1.147-.021 1.633 1.406 1.666 1.98.14.032.378.108.54.162C20.79 11.909 19.71 11 18.67 11c-.973 0-1.87.703-2.227 1.742-.498 1.384-.174 2.715.432 3.764a.5.5 0 0 0-.075.314Z"/><path fill="#64748B" fill-rule="evenodd" d="M5 4a3 3 0 0 0-3 3v10a3 3 0 0 0 3 3h8v-2H5a1 1 0 0 1-1-1V7a1 1 0 0 1 1-1h2.784a1 1 0 0 1 .635.227l2.393 1.966a3 3 0 0 0 1.904.682H19a1 1 0 0 1 1 1V10h2v-.125a3 3 0 0 0-3-3h-6.284a1 1 0 0 1-.635-.227L9.688 4.682A3 3 0 0 0 7.784 4z" clip-rule="evenodd"/></svg>