<svg xmlns="http://www.w3.org/2000/svg" width="24" height="24" fill="none"><path fill="#64748B" fill-rule="evenodd" d="M5 4a3 3 0 0 0-3 3v10a3 3 0 0 0 3 3h8v-2H5a1 1 0 0 1-1-1V7a1 1 0 0 1 1-1h2.784a1 1 0 0 1 .635.227l2.393 1.966a3 3 0 0 0 1.904.682H19a1 1 0 0 1 1 1V10h2v-.125a3 3 0 0 0-3-3h-6.284a1 1 0 0 1-.635-.227L9.688 4.682A3 3 0 0 0 7.784 4z" clip-rule="evenodd"/><circle cx="21" cy="18" r="2" fill="#2563EB"/><rect width="4" height="4" x="14" y="11" fill="#0D9488" rx="1"/><path fill="#22D3EE" d="m16 16.5 1.732 3h-3.464z"/><path fill="#C084FC" d="M20.308 11.871c.237-.643 1.147-.643 1.384 0a.74.74 0 0 0 .437.436c.642.238.642 1.148 0 1.386a.74.74 0 0 0-.437.436c-.237.643-1.147.643-1.384 0a.74.74 0 0 0-.437-.436c-.642-.238-.642-1.148 0-1.386a.74.74 0 0 0 .437-.436"/></svg>