<svg xmlns="http://www.w3.org/2000/svg" width="24" height="24" fill="none"><path fill="#64748B" fill-rule="evenodd" d="M5 4a3 3 0 0 0-3 3v10a3 3 0 0 0 3 3h8v-2H5a1 1 0 0 1-1-1V7a1 1 0 0 1 1-1h2.784a1 1 0 0 1 .635.227l2.393 1.966a3 3 0 0 0 1.904.682H19a1 1 0 0 1 1 1V10h2v-.125a3 3 0 0 0-3-3h-6.284a1 1 0 0 1-.635-.227L9.688 4.682A3 3 0 0 0 7.784 4z" clip-rule="evenodd"/><path fill="#14B8A6" d="M18.643 12c-.592 0-1.072.48-1.072 1.071v.643h-1.714a.857.857 0 0 0-.857.857v1.286c0 .237.192.429.429.429h.153c.56 0 1.07.403 1.126.96a1.07 1.07 0 0 1-1.065 1.183h-.214a.43.43 0 0 0-.429.428v1.286c0 .473.384.857.857.857h1.286a.43.43 0 0 0 .428-.429v-.153c0-.56.404-1.07.961-1.126a1.07 1.07 0 0 1 1.182 1.065v.214c0 .237.192.429.429.429h1.286a.857.857 0 0 0 .857-.857v-1.714h.643a1.071 1.071 0 1 0 0-2.143h-.643V14.57a.857.857 0 0 0-.857-.857h-1.715v-.643c0-.591-.48-1.071-1.071-1.071"/></svg>