<svg xmlns="http://www.w3.org/2000/svg" width="24" height="24" fill="none"><path fill="#8B5CF6" fill-rule="evenodd" stroke="#8B5CF6" stroke-width=".5" d="M18.902 12.667c0-.92.75-1.667 1.674-1.667a1.67 1.67 0 0 1 1.674 1.666 1.67 1.67 0 0 1-2.32 1.539 1.7 1.7 0 0 1-.546-.369l-2.318 1.579c.065.321.033.654-.091.958l2.541 1.67a1.67 1.67 0 0 1 1.7-.25 1.67 1.67 0 0 1 1.034 1.54c0 .92-.75 1.667-1.674 1.667a1.67 1.67 0 0 1-1.675-1.666c0-.234.05-.465.145-.678L16.525 17a1.67 1.67 0 0 1-1.101.41 1.67 1.67 0 0 1-1.674-1.667 1.67 1.67 0 0 1 1.674-1.666c.532 0 1.005.246 1.311.63l2.247-1.529a1.7 1.7 0 0 1-.08-.512Z" clip-rule="evenodd"/><path fill="#64748B" fill-rule="evenodd" d="M5 4a3 3 0 0 0-3 3v10a3 3 0 0 0 3 3h8v-2H5a1 1 0 0 1-1-1V7a1 1 0 0 1 1-1h2.784a1 1 0 0 1 .635.227l2.393 1.966a3 3 0 0 0 1.904.682H19a1 1 0 0 1 1 1V10h2v-.125a3 3 0 0 0-3-3h-6.284a1 1 0 0 1-.635-.227L9.688 4.682A3 3 0 0 0 7.784 4z" clip-rule="evenodd"/></svg>