<svg xmlns="http://www.w3.org/2000/svg" width="24" height="24" fill="none"><path fill="#2563EB" stroke="#2563EB" stroke-width=".5" d="M14 12a1 1 0 0 1 1-1h7a1 1 0 0 1 1 1v7a1 1 0 0 1-1 1h-7a1 1 0 0 1-1-1zm.818 2.091v5.09h7.364v-5.09zm7.364-.818v-1.455h-7.364v1.455zM16.046 15.5a.41.41 0 1 1 .82 0 .41.41 0 1 1-.82 0Zm1.636 0a.41.41 0 1 1 .82 0 .41.41 0 1 1-.82 0Zm1.636 0a.41.41 0 1 1 .82 0 .41.41 0 1 1-.82 0Z"/><path fill="#64748B" fill-rule="evenodd" d="M5 4a3 3 0 0 0-3 3v10a3 3 0 0 0 3 3h8v-2H5a1 1 0 0 1-1-1V7a1 1 0 0 1 1-1h2.784a1 1 0 0 1 .635.227l2.393 1.966a3 3 0 0 0 1.904.682H19a1 1 0 0 1 1 1V10h2v-.125a3 3 0 0 0-3-3h-6.284a1 1 0 0 1-.635-.227L9.688 4.682A3 3 0 0 0 7.784 4z" clip-rule="evenodd"/></svg>