<svg xmlns="http://www.w3.org/2000/svg" width="24" height="24" fill="none"><path fill="#0EA5E9" d="M21.25 13.75h-4.5v4.5h4.5z"/><path fill="#0EA5E9" fill-rule="evenodd" d="M17.125 11.125a.375.375 0 0 1 .375.375v.375h1.125V11.5a.375.375 0 0 1 .75 0v.375H20.5V11.5a.375.375 0 0 1 .75 0v.375h.375a1.5 1.5 0 0 1 1.5 1.5v.375h.375a.375.375 0 0 1 0 .75h-.375v1.125h.375a.375.375 0 0 1 0 .75h-.375V17.5h.375a.375.375 0 0 1 0 .75h-.375v.375a1.5 1.5 0 0 1-1.5 1.5h-.375v.375a.375.375 0 0 1-.75 0v-.375h-1.125v.375a.375.375 0 0 1-.75 0v-.375H17.5v.375a.375.375 0 0 1-.75 0v-.375h-.375a1.5 1.5 0 0 1-1.5-1.5v-.375H14.5a.375.375 0 0 1 0-.75h.375v-1.125H14.5a.375.375 0 0 1 0-.75h.375V14.5H14.5a.375.375 0 0 1 0-.75h.375v-.375a1.5 1.5 0 0 1 1.5-1.5h.375V11.5a.375.375 0 0 1 .375-.375M16 13.375a.375.375 0 0 1 .375-.375h5.25a.375.375 0 0 1 .375.375v5.25a.375.375 0 0 1-.375.375h-5.25a.375.375 0 0 1-.375-.375z" clip-rule="evenodd"/><path fill="#64748B" fill-rule="evenodd" d="M5 4a3 3 0 0 0-3 3v10a3 3 0 0 0 3 3h8v-2H5a1 1 0 0 1-1-1V7a1 1 0 0 1 1-1h2.784a1 1 0 0 1 .635.227l2.393 1.966a3 3 0 0 0 1.904.682H19a1 1 0 0 1 1 1V10h2v-.125a3 3 0 0 0-3-3h-6.284a1 1 0 0 1-.635-.227L9.688 4.682A3 3 0 0 0 7.784 4z" clip-rule="evenodd"/></svg>