<svg xmlns="http://www.w3.org/2000/svg" width="24" height="24" fill="none"><path fill="#64748B" fill-rule="evenodd" d="M5 4a3 3 0 0 0-3 3v10a3 3 0 0 0 3 3h8v-2H5a1 1 0 0 1-1-1V7a1 1 0 0 1 1-1h2.784a1 1 0 0 1 .635.227l2.393 1.966a3 3 0 0 0 1.904.682H19a1 1 0 0 1 1 1V10h2v-.125a3 3 0 0 0-3-3h-6.284a1 1 0 0 1-.635-.227L9.688 4.682A3 3 0 0 0 7.784 4z" clip-rule="evenodd"/><path stroke="#F472B6" stroke-width="1.122" d="M19 15.374c.708 0 1.374-.112 1.884-.312.253-.1.497-.232.686-.408s.366-.437.366-.774-.176-.598-.366-.774a2.2 2.2 0 0 0-.686-.408c-.51-.2-1.176-.312-1.884-.312-.707 0-1.374.112-1.884.312-.253.1-.496.232-.685.408s-.366.437-.366.774c0 .336.176.598.366.774s.432.308.685.408c.51.2 1.177.312 1.884.312Z"/><path fill="#F472B6" stroke="#F472B6" stroke-linejoin="round" stroke-width="1.122" d="M16.069 19.239v-5.176l.488 1.071.26.752 2.055.095 2.857-1.137.202-.78v5.175c0 .664-.538 1.202-1.202 1.202h-3.458a1.2 1.2 0 0 1-1.202-1.202Z"/></svg>