<svg xmlns="http://www.w3.org/2000/svg" width="24" height="24" fill="none"><path fill="#64748B" fill-rule="evenodd" d="M2 7a3 3 0 0 1 3-3h2.784a3 3 0 0 1 1.904.682l2.393 1.966a1 1 0 0 0 .635.227H19q.134 0 .263.011V8.91A1 1 0 0 0 19 8.875h-6.284a3 3 0 0 1-1.904-.682L8.419 6.227A1 1 0 0 0 7.784 6H5a1 1 0 0 0-1 1v10a1 1 0 0 0 1 1h8v2H5a3 3 0 0 1-3-3z" clip-rule="evenodd"/><path fill="#EA580C" d="M19.599 12.733c.634-.524.915-3.623 1.19-4.737s1.409-1.058 1.409-1.058-.295.513-.175.896c.12.382.944.725.944.725l-.178.468s-.37-.048-.591.394c-.221.441.142 4.812.142 4.812s-1.327 2.617-1.327 3.721.523 2.03.523 2.03h-.734s-1.076-1.28-1.297-1.92-.132-1.28-.132-1.28-1.17-.067-2.207 0c-1.038.066-1.73.957-1.854 1.456-.125.5-.177 1.745-.177 1.745h-.58c-.353-1.09-.634-1.48-.482-2.03.422-1.525.34-2.39.242-2.774-.098-.385-.759-.721-.759-.721.324-.66.654-.976 2.075-1.01 1.42-.032 3.334-.192 3.968-.717"/><path fill="#EA580C" d="M15.909 17.89s.15 1.388.946 2.095h.683c-.683-.774-.757-2.789-.757-2.789-.347.113-.828.518-.872.694"/></svg>