<svg xmlns="http://www.w3.org/2000/svg" fill="none" height="24" width="24" viewBox="0 0 24 24"><path fill="#EA580C" fill-rule="evenodd" d="M5.522 13.915c-.268.895-.402 1.341-.37 1.766.032.374.154.733.356 1.045.229.351.602.611 1.35 1.13l3.3 2.297c.666.463 1 .696 1.36.786.318.08.65.08.97.003.36-.09.696-.32 1.365-.78l3.336-2.302c.755-.52 1.133-.78 1.365-1.135a2.24 2.24 0 0 0 .355-1.052c.033-.428-.105-.877-.379-1.777l-2.923-9.599c-.141-.466-.212-.699-.348-.872a1.1 1.1 0 0 0-.45-.343C14.613 3 14.379 3 13.91 3H10.1c-.47 0-.706 0-.905.084-.176.073-.33.192-.45.345-.136.174-.206.408-.345.876l-2.878 9.611m8.536-8.878c.112.145.17.344.285.736l2.51 8.6a10.2 10.2 0 0 0-3.001-1.058l-1.633-5.762a.22.22 0 0 0-.078-.113.21.21 0 0 0-.253 0 .22.22 0 0 0-.077.113l-1.614 5.758c-1.05.19-2.067.549-3.014 1.062l2.523-8.601c.114-.394.172-.59.284-.736a.95.95 0 0 1 .376-.29c.167-.07.364-.07.757-.07h1.801c.394 0 .592 0 .759.07a.94.94 0 0 1 .375.291m-1.945 10.367c.95 0 1.777-.25 2.19-.62a1.96 1.96 0 0 1-.133 1.467c-.265.511-.65.765-.995.994-.436.288-.81.537-.81 1.202 0 .22.049.43.136.615a1.6 1.6 0 0 1-.72-.617 1.73 1.73 0 0 1-.27-.93v-.041c0-.46 0-1.026-.62-1.026a.63.63 0 0 0-.466.2.7.7 0 0 0-.193.486c-.698-.73-.637-1.779-.637-1.779 0-.214.02-.548.112-.84.26.51 1.238.888 2.406.888z" clip-rule="evenodd"/></svg>
