<svg xmlns="http://www.w3.org/2000/svg" fill="none" height="24" width="24" viewBox="0 0 24 24"><path fill="#000" d="M19.871 8.358a3 3 0 0 0-.127-.126c-.043-.04-.083-.086-.126-.127-.043-.04-.084-.086-.127-.127-.043-.04-.083-.086-.126-.126s-.084-.086-.127-.127c-.043-.04-.084-.086-.127-.126s-.083-.086-.126-.127a6.7 6.7 0 0 1 2.002 4.674c0 4.194-4.258 7.607-9.493 7.607-2.932 0-5.555-1.07-7.299-2.75l.127.127.126.127.127.127.126.126.127.127.126.126.127.127c1.742 1.75 4.423 2.876 7.425 2.876 5.236 0 9.494-3.413 9.494-7.595 0-1.787-.77-3.481-2.129-4.813"/><path fill="#FBF0DF" d="M20.355 12.146c0 3.85-3.968 6.972-8.861 6.972s-8.861-3.122-8.861-6.972c0-2.388 1.519-4.497 3.853-5.747s3.788-2.532 5.008-2.532 2.263 1.046 5.007 2.532c2.334 1.25 3.854 3.36 3.854 5.747"/><path fill="#F6DECE" d="M20.355 12.146a5.5 5.5 0 0 0-.203-1.464c-.691 8.43-10.975 8.836-15.018 6.314a10.13 10.13 0 0 0 6.36 2.122c4.886 0 8.86-3.127 8.86-6.972"/><path fill="#FFFEFC" d="M8.084 5.935c1.131-.678 2.635-1.952 4.114-1.954a2.4 2.4 0 0 0-.704-.114c-.613 0-1.266.316-2.089.792q-.427.254-.896.545c-.59.364-1.266.777-2.025 1.19-2.41 1.303-3.851 3.453-3.851 5.752v.3c1.534-5.42 4.321-5.832 5.45-6.51"/><path fill="#CCBEA7" fill-rule="evenodd" d="M10.765 4.508a4.16 4.16 0 0 1-1.426 3.157c-.07.063-.015.184.076.149.854-.332 2.005-1.324 1.52-3.327-.021-.114-.17-.083-.17.02m.574 0a4.11 4.11 0 0 1 .408 3.41c-.03.088.078.164.14.09.554-.708 1.037-2.116-.411-3.635-.073-.065-.187.036-.137.124zm.7-.044a4.16 4.16 0 0 1 1.733 2.978.083.083 0 0 0 .07.092.084.084 0 0 0 .095-.064c.233-.884.101-2.39-1.815-3.173-.102-.04-.168.097-.084.157zM7.364 7.097a4.3 4.3 0 0 0 2.65-2.278c.046-.091.19-.056.167.045C9.744 6.89 8.28 7.313 7.367 7.257c-.096.002-.093-.132-.002-.16" clip-rule="evenodd"/><path fill="#000" d="M11.494 19.753C6.258 19.753 2 16.34 2 12.146c0-2.532 1.565-4.894 4.185-6.31.76-.404 1.41-.812 1.99-1.169.319-.197.62-.382.911-.554.889-.527 1.648-.879 2.408-.879s1.422.304 2.253.795c.253.144.506.301.777.473.63.39 1.342.83 2.279 1.335 2.62 1.415 4.184 3.774 4.184 6.309 0 4.194-4.258 7.607-9.493 7.607m0-15.886c-.613 0-1.266.316-2.089.792q-.427.254-.896.545c-.59.364-1.266.777-2.025 1.19-2.41 1.303-3.851 3.453-3.851 5.752 0 3.845 3.975 6.974 8.86 6.974 4.887 0 8.862-3.129 8.862-6.975 0-2.298-1.441-4.448-3.854-5.746-.957-.507-1.704-.983-2.309-1.357q-.414-.256-.759-.466c-.767-.456-1.327-.709-1.94-.709"/><path fill="#B71422" d="M13.279 13.994a2.26 2.26 0 0 1-.74 1.192 1.72 1.72 0 0 1-1.012.476 1.73 1.73 0 0 1-1.046-.476 2.26 2.26 0 0 1-.729-1.192.182.182 0 0 1 .202-.205h3.125a.182.182 0 0 1 .2.205"/><path fill="#FF6164" d="M10.481 15.206a1.75 1.75 0 0 0 1.043.481 1.75 1.75 0 0 0 1.04-.48q.137-.128.254-.272a1.73 1.73 0 0 0-1.24-.584 1.56 1.56 0 0 0-1.267.703c.059.054.11.104.17.152"/><path fill="#000" d="M10.522 15.006a1.36 1.36 0 0 1 1.06-.526c.38.01.74.164 1.013.428q.087-.097.167-.195a1.77 1.77 0 0 0-1.192-.489 1.61 1.61 0 0 0-1.238.598q.09.097.19.184"/><path fill="#000" d="M11.517 15.814a1.88 1.88 0 0 1-1.127-.506 2.4 2.4 0 0 1-.787-1.279.3.3 0 0 1 .065-.253.36.36 0 0 1 .286-.13h3.124a.37.37 0 0 1 .287.13.3.3 0 0 1 .063.253c-.12.5-.396.947-.788 1.279a1.88 1.88 0 0 1-1.123.506M9.954 13.94c-.04 0-.05.017-.053.022.107.433.35.82.691 1.107.25.246.576.402.925.443a1.6 1.6 0 0 0 .924-.438 2.1 2.1 0 0 0 .688-1.107.05.05 0 0 0-.05-.022z"/><path fill="#FEBBD0" d="M15.347 14.15c.818 0 1.48-.39 1.48-.87 0-.481-.662-.871-1.48-.871s-1.481.39-1.481.87c0 .482.663.872 1.48.872m-7.662-.001c.817 0 1.48-.39 1.48-.87 0-.481-.663-.871-1.48-.871-.818 0-1.481.39-1.481.87 0 .482.663.872 1.48.872"/><path fill="#000" fill-rule="evenodd" d="M8.38 12.93a1.395 1.395 0 1 0 .005-2.79 1.395 1.395 0 0 0-.005 2.79m6.27 0a1.395 1.395 0 1 0 .02-2.79 1.395 1.395 0 0 0-.02 2.79" clip-rule="evenodd"/><path fill="#fff" fill-rule="evenodd" d="M7.95 11.624a.524.524 0 1 0 .004-1.048.524.524 0 0 0-.005 1.048m6.27 0a.524.524 0 1 0-.005 0z" clip-rule="evenodd"/></svg>
