<svg xmlns="http://www.w3.org/2000/svg" fill="none" height="24" width="24" viewBox="0 0 25 24"><path fill="#4ADE80" fill-rule="evenodd" d="M14.877 17.123c.455.16.975.256 1.605.335q.355.042.763.043a10.5 10.5 0 0 0 2.453-.327A9 9 0 0 1 3.338 12v-.157a3.8 3.8 0 0 1 .053-.81c.737-2.508 2.508-3.437 4.185-3.452.34 0 .674.044.993.121a5.717 5.717 0 0 0 6.308 9.42M9.602 8.11A4.76 4.76 0 0 0 7.58 12a4.76 4.76 0 0 0 1.969 3.85c.202-.844.617-1.638 1.218-2.791.266-.51.568-1.088.904-1.772a18 18 0 0 0-.223-.581c-.304-.763-.743-1.649-1.135-2.05-.2-.21-.442-.39-.71-.545m2.361 4.051c-.089.194-.188.412-.29.644-.361.819-.761 1.815-.908 2.453a3.7 3.7 0 0 0-.084.822q.001.186.017.385a4.8 4.8 0 0 0 1.64.292 4.8 4.8 0 0 0 1.5-.244 3 3 0 0 1-.314-.332c-.64-.815-.996-2.01-1.56-4.02" clip-rule="evenodd"/><path fill="#60A5FA" fill-rule="evenodd" d="M5.024 6.76A8.99 8.99 0 0 1 12.337 3a9 9 0 0 1 8.924 10.148c-.245.974-.686 1.623-1.212 2.067-.808.68-1.885.899-2.882.899a7 7 0 0 1-.813-.046 5.7 5.7 0 0 0 1.7-4.068h.001a5.718 5.718 0 0 0-8.019-5.234q-.132-.091-.274-.175c-.395-.222-1.217-.546-2.263-.549a4.57 4.57 0 0 0-2.475.717m10.124 9.076a2.5 2.5 0 0 1-.357-.122c-.186-.08-.46-.355-.708-.737-.379-.57-.726-1.352-.97-1.983-.224-.58-.363-1.028-.386-1.1l-.003-.01v-.003c-.45-1.721-.915-3.295-1.88-4.397a4.8 4.8 0 0 1 1.493-.243A4.765 4.765 0 0 1 17.096 12a4.76 4.76 0 0 1-1.948 3.836" clip-rule="evenodd"/></svg>
