<svg xmlns="http://www.w3.org/2000/svg" fill="none" height="24" width="24" viewBox="0 0 24 24"><path fill="#60A5FA" d="M13.82 10.449h-2.49a2.4 2.4 0 0 0-.278-.858q-.21-.381-.54-.648a2.4 2.4 0 0 0-.762-.409 2.9 2.9 0 0 0-.926-.142q-.903 0-1.574.449-.67.443-1.04 1.295-.369.847-.369 2.057 0 1.245.37 2.091.375.846 1.045 1.278t1.551.432q.495 0 .915-.13.426-.131.756-.381.33-.255.545-.62.222-.363.307-.829l2.489.011a4.65 4.65 0 0 1-1.511 2.87q-.643.58-1.535.92-.886.335-2.006.335-1.556 0-2.784-.704-1.221-.705-1.931-2.04-.705-1.335-.705-3.233 0-1.903.716-3.238T6.007 6.92q1.227-.705 2.761-.704 1.013 0 1.875.284.87.284 1.54.83.67.54 1.091 1.323.426.785.546 1.796m6.412-1.165v1.818h-5.387V9.284zm-4.154 8.727V8.653q0-.948.37-1.573.374-.626 1.022-.938a3.35 3.35 0 0 1 1.472-.312 5.6 5.6 0 0 1 1.017.085q.465.085.693.153l-.432 1.818a3 3 0 0 0-.352-.085 2.2 2.2 0 0 0-.42-.04q-.535 0-.745.25-.21.244-.21.688v9.312z"/></svg>
