<svg xmlns="http://www.w3.org/2000/svg" xmlns:xlink="http://www.w3.org/1999/xlink" fill="none" height="24" width="24" viewBox="0 0 25 24"><g fill="#60A5FA" clip-path="url(#a)"><path d="M16.633 14.185v-4.37h1.105v4.37zM15 12.552v-1.104h4.37v1.104zm6.599 1.633v-4.37h1.105v4.37zm-1.633-1.633v-1.104h4.37v1.104zM14.6 9.938h-2.49a2.4 2.4 0 0 0-.278-.858q-.21-.381-.54-.648a2.4 2.4 0 0 0-.761-.41 2.9 2.9 0 0 0-.926-.141q-.903 0-1.574.449-.67.443-1.04 1.295-.37.846-.37 2.057 0 1.245.37 2.09.375.847 1.046 1.28.67.43 1.55.431.495 0 .916-.13.426-.132.755-.381.33-.255.546-.62.221-.363.307-.83l2.488.012a4.64 4.64 0 0 1-1.511 2.87 4.8 4.8 0 0 1-1.534.92q-.887.335-2.006.335-1.557 0-2.784-.704-1.221-.705-1.932-2.04-.704-1.335-.704-3.233 0-1.905.716-3.239.716-1.335 1.943-2.034 1.227-.704 2.761-.704 1.012 0 1.875.284.87.284 1.54.83.67.539 1.09 1.323.428.784.546 1.796"/></g><defs><clipPath id="a"><path fill="#fff" d="M.336 0h24v24h-24z"/></clipPath></defs></svg>
