<svg xmlns="http://www.w3.org/2000/svg" fill="none" height="24" width="24" viewBox="0 0 24 24"><path fill="#14B8A6" d="M15.263 9.938h-2.489a2.4 2.4 0 0 0-.278-.858q-.21-.381-.54-.648a2.4 2.4 0 0 0-.761-.41 2.9 2.9 0 0 0-.927-.141q-.903 0-1.573.449-.67.443-1.04 1.295-.37.846-.37 2.057 0 1.245.37 2.09.375.847 1.045 1.28.67.43 1.551.431.495 0 .915-.13.426-.132.756-.381.33-.255.545-.62.222-.363.307-.83l2.489.012a4.64 4.64 0 0 1-1.511 2.87 4.8 4.8 0 0 1-1.535.92q-.886.335-2.005.335-1.557 0-2.784-.704-1.223-.705-1.932-2.04-.705-1.335-.705-3.233 0-1.905.716-3.239.716-1.335 1.943-2.034 1.227-.704 2.762-.704 1.011 0 1.875.284.87.284 1.54.83.67.539 1.09 1.323.426.784.546 1.796m5.01 6.532 1.466-8.94h1.397l-1.467 8.94zm-4.003-2.218.232-1.397h6.983l-.231 1.397zm.86 2.217 1.467-8.938h1.396l-1.466 8.938zm-.349-5.324.236-1.397H24l-.236 1.397z"/></svg>
