<svg xmlns="http://www.w3.org/2000/svg" fill="none" height="24" width="24" viewBox="0 0 24 24"><mask id="a" width="18" height="18" x="3" y="3" fill="#000" maskUnits="userSpaceOnUse"><path fill="#fff" d="M3 3h18v18H3z"/><path fill-rule="evenodd" d="M15.889 5H8.11A3.11 3.11 0 0 0 5 8.111v7.778A3.11 3.11 0 0 0 8.111 19h7.778A3.11 3.11 0 0 0 19 15.889V8.11A3.11 3.11 0 0 0 15.889 5m0 12.444H8.11zm1.555-1.555V8.11z" clip-rule="evenodd"/></mask><path fill="#14B8A6" d="M15.889 19.444a2 2 0 1 0 0-4zm-7.778-2v-2zm-.159-.008.202-1.99a2 2 0 0 0-.404 3.98zm8.096 0-.202-1.99a2 2 0 1 0 .404 3.98zm3.396-9.325a2 2 0 1 0-4 0zM8.111 7h7.778V3H8.11zM7 8.111A1.11 1.11 0 0 1 8.111 7V3A5.11 5.11 0 0 0 3 8.111zm0 7.778V8.11H3v7.778zM8.111 17A1.11 1.11 0 0 1 7 15.889H3A5.11 5.11 0 0 0 8.111 21zm7.778 0H8.11v4h7.778zM17 15.889A1.11 1.11 0 0 1 15.889 17v4A5.11 5.11 0 0 0 21 15.889zm0-7.778v7.778h4V8.11zM15.889 7A1.11 1.11 0 0 1 17 8.111h4A5.11 5.11 0 0 0 15.889 3zm0 8.444H8.11v4h7.778zm-7.778 0 .043.003-.404 3.98q.18.017.361.017zm-.361 3.982q.18.018.361.018v-4l.043.003zm.361.018h7.778v-4H8.11zm8.139-.018a3.556 3.556 0 0 0 3.194-3.537h-4c0-.231.176-.42.402-.442zm-.806-3.537c0-.231.176-.42.402-.442l.404 3.98a3.556 3.556 0 0 0 3.194-3.538zm0-7.778v7.778h4V8.11zm4 0a2 2 0 0 0-1.16-1.815l-.005-.002-.001-.001.027.013a2 2 0 0 1 .323.193 2 2 0 0 1 .598.703 2 2 0 0 1 .218.91h-4a2 2 0 0 0 1.165 1.816l.002.001-.007-.003a2 2 0 0 1-.169-.088 2 2 0 0 1-.656-.62 2 2 0 0 1-.335-1.107zm0 7.778V8.11h-4v7.778z" mask="url(#a)"/><rect width="4" height="2" x="7" y="7" fill="#14B8A6" rx="1"/><rect width="4" height="2" x="7" y="11" fill="#14B8A6" rx="1"/><rect width="4" height="2" x="7" y="15" fill="#14B8A6" rx="1"/><rect width="4" height="2" x="13" y="7" fill="#14B8A6" rx="1"/><rect width="4" height="2" x="13" y="11" fill="#14B8A6" rx="1"/><rect width="4" height="2" x="13" y="15" fill="#14B8A6" rx="1"/></svg>
