<svg xmlns="http://www.w3.org/2000/svg" fill="none" height="24" width="24" viewBox="0 0 24 24"><path fill="#4ADE80" fill-rule="evenodd" d="M11.926 3a7.937 7.937 0 0 0-1.511 15.726V21c4.751-.717 8.959-4.488 9.273-9.441a8.22 8.22 0 0 0-3.804-7.498 6.6 6.6 0 0 0-.913-.46l-.152-.06c-.14-.053-.28-.11-.425-.153A7.9 7.9 0 0 0 11.926 3m1.64 2.94a.87.87 0 0 0-.757.302q-.195.271-.334.576a1.87 1.87 0 0 0 .243 1.94A2.13 2.13 0 0 0 14.263 7.5a1.5 1.5 0 0 0 .152-.637.907.907 0 0 0-.848-.923m-3.535.045a.925.925 0 0 0-.864.879c.004.22.056.438.153.636a2.2 2.2 0 0 0 1.59 1.258 2.01 2.01 0 0 0-.137-2.47.85.85 0 0 0-.741-.303zm-2.375 2.33a.835.835 0 0 0-.47 1.503q.272.2.576.349a2.18 2.18 0 0 0 2.046-.197 2.24 2.24 0 0 0-1.32-1.5 1.7 1.7 0 0 0-.68-.155 1 1 0 0 0-.152 0m7.47 2.947a2.2 2.2 0 0 0-1.257.364 2.24 2.24 0 0 0 1.318 1.5c.216.097.45.149.688.152a.853.853 0 0 0 .615-1.525 3.5 3.5 0 0 0-.575-.334 2.1 2.1 0 0 0-.786-.167zm-6.622.045a2.1 2.1 0 0 0-.785.167c-.214.075-.41.194-.577.349a.86.86 0 0 0 .667 1.5c.235 0 .468-.054.68-.156a2.05 2.05 0 0 0 1.258-1.5 2.17 2.17 0 0 0-1.243-.364zm2.456 1.485a2.13 2.13 0 0 0-1.546 1.258 1.5 1.5 0 0 0-.152.621.903.903 0 0 0 1.561.637q.195-.271.334-.576a1.99 1.99 0 0 0-.196-1.939zm1.803.045a2.01 2.01 0 0 0 .137 2.47.946.946 0 0 0 1.605-.576 1.5 1.5 0 0 0-.152-.636 2.2 2.2 0 0 0-1.59-1.258" clip-rule="evenodd"/></svg>
