<svg xmlns="http://www.w3.org/2000/svg" fill="none" height="24" width="24" viewBox="0 0 24 24"><path fill="#2DD4BF" d="M11.465 10.474H9.288a2.1 2.1 0 0 0-.244-.751 1.9 1.9 0 0 0-.472-.567 2.1 2.1 0 0 0-.667-.358 2.6 2.6 0 0 0-.81-.124q-.79 0-1.377.393-.586.387-.91 1.133-.323.741-.323 1.8 0 1.089.323 1.83.329.74.915 1.118t1.357.378q.433 0 .8-.114.375-.116.662-.333.288-.225.477-.542.194-.319.269-.726l2.177.01a4.06 4.06 0 0 1-1.322 2.51 4.2 4.2 0 0 1-1.343.806q-.775.293-1.755.293-1.362 0-2.436-.616-1.069-.617-1.69-1.785Q2.302 13.66 2.302 12q0-1.665.627-2.834.627-1.168 1.7-1.78 1.074-.615 2.416-.616.885 0 1.641.248a4.2 4.2 0 0 1 1.347.726q.587.472.955 1.159.373.685.477 1.57m.667-3.563h2.411l2.322 4.384h.1l2.321-4.385h2.412l-3.714 6.583v3.599h-2.138v-3.6z"/></svg>
