<svg xmlns="http://www.w3.org/2000/svg" fill="none" height="24" width="24" viewBox="0 0 25 24"><path fill="#38BDF8" fill-rule="evenodd" d="m14.468 3.592 3.08 3.079-11.13-.592L12.1 3.237c.258-.155.658-.237 1.065-.237.474 0 1.034.322 1.302.592M6.416 15.67c0 .95.119 1.183.591 1.658l.474.474L10.678 21h7.461v-3.197l-5.21-5.92-6.513-5.804z" clip-rule="evenodd"/><path fill="#075985" fill-rule="evenodd" d="M6.416 6.078h9.474c.652 0 1.124.058 1.656.592l3.79 3.79v7.342H18.14zM3.928 14.25l3.08 3.08-.592-11.25L3.573 12c-.102.214-.237.589-.237.828 0 .518.227 1.047.592 1.422" clip-rule="evenodd"/></svg>
