<svg xmlns="http://www.w3.org/2000/svg" fill="none" height="24" width="24" viewBox="0 0 24 24"><path fill="#F472B6" d="M4.8 6.6c0-.621.284-1.164.697-1.602.41-.434.97-.794 1.613-1.082C8.396 3.339 10.126 3 12 3s3.604.34 4.89.916c.642.288 1.203.648 1.613 1.082.413.438.697.98.697 1.602v10.8c0 .622-.284 1.164-.697 1.602-.41.434-.97.794-1.613 1.082-1.286.577-3.016.916-4.89.916s-3.604-.34-4.89-.916c-.642-.288-1.204-.648-1.613-1.082-.413-.438-.697-.98-.697-1.602zm1.35 0c0 .186.081.413.329.675.25.266.645.536 1.183.777 1.076.482 2.609.798 4.338.798s3.262-.316 4.338-.798c.538-.241.933-.511 1.183-.777.248-.262.329-.489.329-.675s-.081-.413-.329-.675c-.25-.266-.645-.536-1.183-.777-1.076-.482-2.609-.798-4.338-.798s-3.262.316-4.338.798c-.538.241-.933.511-1.183.777-.248.262-.329.489-.329.675m11.7 2.153a6 6 0 0 1-.96.531c-1.286.577-3.016.916-4.89.916s-3.604-.34-4.89-.916a6 6 0 0 1-.96-.53V17.4c0 .186.081.413.329.675.25.266.645.536 1.183.777 1.076.482 2.609.798 4.338.798s3.262-.316 4.338-.798c.538-.241.933-.511 1.183-.777.248-.262.329-.489.329-.675z"/><path fill="#F472B6" fill-rule="evenodd" d="M7.008 3.688c1.325-.594 3.09-.938 4.992-.938 1.901 0 3.667.344 4.992.938.662.296 1.254.673 1.693 1.139.444.47.765 1.07.765 1.773v10.8c0 .702-.321 1.303-.765 1.773-.439.466-1.031.843-1.693 1.14-1.325.593-3.09.937-4.992.937-1.901 0-3.667-.344-4.992-.938-.662-.296-1.254-.673-1.693-1.139-.444-.47-.765-1.07-.765-1.773V6.6c0-.702.321-1.303.765-1.773.44-.466 1.031-.843 1.693-1.14M6.66 7.104c.22.234.584.487 1.104.72C8.8 8.29 10.298 8.6 12 8.6s3.2-.311 4.235-.776c.52-.233.883-.486 1.105-.72.216-.23.26-.398.26-.504s-.044-.275-.26-.504c-.222-.234-.585-.487-1.105-.72C15.2 4.91 13.702 4.6 12 4.6s-3.2.311-4.235.776c-.52.233-.883.486-1.104.72-.217.23-.261.398-.261.504s.044.275.26.504m10.86-1.18c.248.263.329.49.329.676s-.081.413-.329.675c-.25.266-.645.536-1.183.777-1.076.482-2.609.798-4.338.798s-3.262-.316-4.338-.798c-.538-.241-.933-.511-1.183-.777-.248-.262-.329-.489-.329-.675s.081-.413.329-.675c.25-.266.645-.536 1.183-.777 1.077-.482 2.61-.798 4.339-.798s3.262.316 4.338.798c.538.241.933.511 1.183.777M7.11 20.085c-.642-.288-1.204-.648-1.613-1.082-.413-.438-.697-.98-.697-1.602V6.6c0-.621.284-1.164.697-1.602.41-.434.97-.794 1.613-1.082C8.396 3.339 10.126 3 12 3s3.604.34 4.89.916c.642.288 1.203.648 1.613 1.082.413.438.697.98.697 1.602v10.8c0 .622-.284 1.164-.697 1.602-.41.434-.97.794-1.613 1.082-1.286.577-3.016.916-4.89.916s-3.604-.34-4.89-.916m-.45-2.18c.222.234.585.487 1.105.72 1.036.465 2.533.776 4.235.776s3.2-.311 4.235-.776c.52-.233.883-.486 1.105-.72.216-.23.26-.398.26-.504V9.205a7 7 0 0 1-.608.307c-1.325.594-3.09.938-4.992.938-1.901 0-3.667-.344-4.992-.938a7 7 0 0 1-.608-.307V17.4c0 .106.044.275.26.504m-.51-9.15q.12.082.25.16.334.202.71.37c1.286.577 3.016.916 4.89.916s3.604-.34 4.89-.916a6.5 6.5 0 0 0 .96-.53V17.4c0 .186-.081.413-.329.675-.25.266-.645.536-1.183.777-1.076.482-2.609.798-4.338.798s-3.262-.316-4.338-.798c-.538-.241-.933-.511-1.183-.777-.248-.262-.329-.489-.329-.675z" clip-rule="evenodd"/></svg>
