<svg xmlns="http://www.w3.org/2000/svg" fill="none" height="24" width="24" viewBox="0 0 24 24"><path fill="#2563EB" fill-rule="evenodd" d="M19.071 4.929A10 10 0 1 0 4.93 19.07 10 10 0 0 0 19.07 4.93m-12.656.76a.488.488 0 0 1 .941.254l-.003.016-.665 2.46-.003.013a.488.488 0 0 1-.942-.258l.004-.012.664-2.46zm8.531.465a.495.495 0 0 1 .598-.332c.254.07.406.332.344.59v.012l-.524 1.933-.043-.035a5.5 5.5 0 0 0-.824-.5l.445-1.656zM10.27 3.184q.46-.09.93-.133a.5.5 0 0 1-.005.219l-.004.011-.664 2.461-.004.012a.488.488 0 0 1-.941-.254l.004-.012.617-2.293zm6.91 2.05.129-.484.058.043q.402.301.77.644l-.016.051-.004.012a.488.488 0 0 1-.941-.254zm-3.97-1.23.235-.871.07.012q.448.075.883.195l-.246.918-.004.012a.488.488 0 0 1-.941-.254zM6.438 11.77c0-2.278 2.266-4.11 5.172-4.11 1.399 0 2.598.387 3.543 1.125a5.03 5.03 0 0 1 1.7 2.477l.007.023.008.027.016.051.023.094.063.219.066.25.293 1.07 1.344 5.02-.043.047a8.98 8.98 0 0 1-5.442 2.843l-.019-.129-.035-.258-.031-.187-.036-.246-.046-.3-.02-.118-.043-.285-.027-.168-.035-.219-.036-.21-.035-.204-.035-.2-.031-.195-.035-.187-.032-.18-.023-.133-.027-.128-.047-.247-.024-.117-.027-.144-.023-.102-.02-.097-.02-.094-.011-.063-.028-.117-.039-.172-.015-.054-.02-.079-.015-.074-.02-.074-.02-.07-.011-.043-.02-.067-.015-.062-.012-.043-.016-.04-.011-.034-.016-.055-.012-.04-.008-.023a3 3 0 0 0-.07-.183l-.012-.024.09-.234-.355.012-.098.004c-3.226.066-5.308-1.305-5.308-3.453m2.024 6.648a.486.486 0 0 1 .594-.332c.258.066.41.328.347.586l-.004.012-.472 1.761-.067-.027a9 9 0 0 1-.84-.363l.438-1.625zm2.719-1.191a.488.488 0 0 1 .902-.086l.016.07.023.113.016.082-.004.02-.012.055v.011l-.664 2.461-.004.012a.488.488 0 0 1-.941-.254v-.012l.664-2.46zm-4.063-2.793.031-.075c.247.215.532.41.844.575l-.601 2.234-.004.012a.488.488 0 0 1-.942-.258l.004-.012.664-2.46zM4.97 11.859a.495.495 0 0 1 .597-.332c.254.07.407.332.344.59v.012l-.664 2.46-.004.013a.489.489 0 0 1-.941-.258v-.012l.664-2.46zm14.89-.558a.49.49 0 0 1 .594-.332c.258.07.41.332.348.586v.015l-.668 2.461v.012a.49.49 0 0 1-.945-.258l.003-.012.665-2.46zm-16.785-.344a8.9 8.9 0 0 1 1.043-3.273q.06 0 .117.015a.49.49 0 0 1 .348.59l-.004.012-.664 2.46-.004.012a.492.492 0 0 1-.836.184m15.102-2.926a.496.496 0 0 1 .597-.332c.254.07.41.332.348.59l-.004.012-.664 2.46-.004.012a.488.488 0 0 1-.941-.257l.004-.012.664-2.461z" clip-rule="evenodd"/><path fill="#2563EB" d="M12.234 9.305a.625.625 0 1 1 0 1.25.625.625 0 0 1 0-1.25"/></svg>
