<svg xmlns="http://www.w3.org/2000/svg" fill="none" height="24" width="24" viewBox="0 0 24 24"><path fill="#60A5FA" d="M21.803 10.53c-.055-.044-.56-.434-1.629-.434a5 5 0 0 0-.841.074c-.207-1.446-1.378-2.151-1.43-2.183l-.287-.169-.189.278a4 4 0 0 0-.51 1.217c-.19.825-.075 1.6.336 2.263-.496.282-1.292.352-1.453.358H2.626a.633.633 0 0 0-.625.636 9.9 9.9 0 0 0 .577 3.455c.454 1.215 1.129 2.11 2.007 2.657.985.616 2.584.967 4.397.967.818.003 1.636-.073 2.441-.226 1.12-.21 2.196-.609 3.186-1.181a8.8 8.8 0 0 0 2.175-1.817c1.044-1.206 1.665-2.55 2.128-3.743h.184c1.143 0 1.846-.467 2.233-.858.258-.25.459-.553.59-.89l.081-.245z"/><path fill="#60A5FA" d="M3.847 11.54h1.766c.085 0 .154-.07.154-.157V9.778a.156.156 0 0 0-.153-.159H3.847a.156.156 0 0 0-.154.158v1.606c0 .087.07.157.154.157m2.433 0h1.765c.086 0 .155-.07.155-.157V9.778a.156.156 0 0 0-.154-.159H6.28a.157.157 0 0 0-.155.159v1.605c0 .087.07.157.155.157m2.47 0h1.765c.085 0 .154-.07.154-.157V9.778a.156.156 0 0 0-.153-.159H8.75a.156.156 0 0 0-.154.158v1.606c0 .087.069.157.154.157m2.44 0h1.766c.085 0 .154-.07.155-.157V9.778a.157.157 0 0 0-.155-.159H11.19a.156.156 0 0 0-.155.158v1.606c0 .087.07.157.155.157M6.28 9.23h1.765a.157.157 0 0 0 .155-.157V7.467a.156.156 0 0 0-.155-.157H6.28a.157.157 0 0 0-.155.157v1.606c0 .087.07.157.155.158m2.47-.001h1.765a.157.157 0 0 0 .154-.157V7.467a.156.156 0 0 0-.154-.157H8.75a.156.156 0 0 0-.154.157v1.606c0 .087.069.157.154.158m2.44-.001h1.766a.16.16 0 0 0 .155-.157V7.467a.157.157 0 0 0-.155-.157H11.19a.156.156 0 0 0-.155.157v1.606c0 .087.07.157.155.158m0-2.311h1.766c.085 0 .154-.07.155-.157V5.157A.157.157 0 0 0 12.956 5H11.19a.156.156 0 0 0-.155.157v1.606c0 .087.07.158.155.158m2.463 4.619h1.765c.085 0 .155-.07.155-.157V9.778a.157.157 0 0 0-.155-.159h-1.765a.156.156 0 0 0-.155.158v1.606c0 .087.07.157.155.157"/></svg>
