<svg xmlns="http://www.w3.org/2000/svg" fill="none" height="24" width="24" viewBox="0 0 24 24"><path fill="#4ADE80" d="M7.015 11.416a.777.777 0 0 0-.296-1.067.8.8 0 0 0-1.078.3l-2.537 4.426a.777.777 0 0 0 .296 1.067.8.8 0 0 0 1.078-.3zm5.468-3.394a.777.777 0 0 0-.296-1.067.797.797 0 0 0-1.078.3L8.572 11.68a.777.777 0 0 0 .296 1.067.797.797 0 0 0 1.078-.3zm8.413 0a.777.777 0 0 0-.295-1.067.8.8 0 0 0-1.079.3l-2.537 4.426a.777.777 0 0 0 .296 1.067.797.797 0 0 0 1.079-.3zm-5.469 3.394a.777.777 0 0 0-.296-1.067.8.8 0 0 0-1.078.3l-2.537 4.426a.777.777 0 0 0 .296 1.067.8.8 0 0 0 1.078-.3z"/></svg>
