<svg xmlns="http://www.w3.org/2000/svg" fill="none" height="24" width="24" viewBox="0 0 24 24"><path stroke="#2563EB" stroke-linejoin="round" d="M2.734 9.093a.5.5 0 0 0 .5.5h2.618V17.5a.5.5 0 0 0 .5.5h2.127a.5.5 0 0 0 .5-.5V9.593h2.618a.5.5 0 0 0 .5-.5V7.318a.5.5 0 0 0-.5-.5H3.234a.5.5 0 0 0-.5.5zM19 10.296a.5.5 0 0 0 .497.45h2.064a.5.5 0 0 0 .5-.508c-.012-.695-.2-1.326-.575-1.875-.372-.544-.888-.96-1.527-1.25-.642-.295-1.375-.434-2.187-.434-.8 0-1.534.14-2.191.43-.654.29-1.187.702-1.58 1.243v.002c-.399.553-.59 1.196-.587 1.908-.003.874.29 1.615.908 2.167.575.513 1.334.87 2.246 1.092h.002l1.105.278.005.001q.528.128.86.272h.002c.212.09.334.183.4.262l.005.005c.047.054.08.126.08.248a.52.52 0 0 1-.116.341.96.96 0 0 1-.42.287h-.003a2.1 2.1 0 0 1-.766.124c-.319 0-.589-.048-.817-.134a1.13 1.13 0 0 1-.486-.35c-.102-.138-.174-.324-.191-.586a.5.5 0 0 0-.5-.466h-2.082a.5.5 0 0 0-.5.512c.018.807.215 1.521.618 2.114l.002.003c.401.58.955 1.011 1.642 1.296.684.283 1.467.416 2.34.416.876 0 1.653-.131 2.317-.412h.002c.662-.284 1.194-.692 1.568-1.237.378-.55.56-1.19.565-1.9v-.007a3.2 3.2 0 0 0-.28-1.334 3 3 0 0 0-.753-1.02q-.472-.419-1.093-.694a7 7 0 0 0-1.314-.428l-.911-.218-.007-.002q-.304-.069-.565-.16a2.2 2.2 0 0 1-.414-.203.7.7 0 0 1-.202-.198.35.35 0 0 1-.04-.196v-.018a.47.47 0 0 1 .091-.289.76.76 0 0 1 .34-.235l.005-.003c.165-.067.393-.111.7-.111.45 0 .743.097.932.235.178.132.284.31.31.582Z"/></svg>
