<svg xmlns="http://www.w3.org/2000/svg" fill="none" height="24" width="24" viewBox="0 0 24 24"><path fill="#83FF50" stroke="#83FF50" stroke-miterlimit="5.333" stroke-width=".071" d="m12.51 8.294-2.095 3.635h-.014l-2.073-3.6z"/><mask id="a" width="12" height="5" x="2" y="4" maskUnits="userSpaceOnUse" style="mask-type:luminance"><path fill="#fff" d="M13.935 8.948H2.69V4h11.245z"/></mask><g mask="url(#a)"><path fill="#96FF5B" fill-opacity=".647" d="m12.528 8.274-.008.014h-.007v.007l-4.188.036v-.008H4.129l-.028-.05 2.108-3.648h4.217z" opacity=".83"/></g><path fill="#fff" d="m12.519 8.289-2.094 3.635h-.008l2.095-3.635z"/><path fill="#00D6FF" stroke="#00D6FF" stroke-miterlimit="5.333" stroke-width=".071" d="m10.427 11.976-.007.014-2.102 3.635h-4.21L2 11.976l2.109-3.65h.02l2.074 3.6h4.196z"/><path fill="#7DFFFF" stroke="#7DFFFF" stroke-miterlimit="5.333" stroke-width=".071" d="M10.398 11.926H6.209l-2.08-3.6h4.196z"/><path fill="#32E6FF" stroke="#32E6FF" stroke-miterlimit="5.333" stroke-width=".071" d="m12.54 15.535.036.057h-.064l-1.598.014-2.59.022 2.1-3.635h4.168z"/><mask id="b" width="9" height="11" x="7" y="10" maskUnits="userSpaceOnUse" style="mask-type:luminance"><path fill="#fff" d="M15.753 20.513H7.24v-9.74h8.513z"/></mask><g mask="url(#b)"><path fill="#00D5FF" fill-opacity=".545" d="m14.69 19.187-.064.107h-4.21l-2.109-3.65.008-.013 2.101-3.635h.007l-2.101 3.627 2.591-.02 1.604-.015h.064l2.066 3.6z" opacity=".86"/></g><path fill="#20E6FF" stroke="#20E6FF" stroke-miterlimit="5.333" stroke-width=".071" d="m12.54 15.535.036.057h-.064l-2.073-3.6h4.153z"/><path fill="#2AF0FF" stroke="#2AF0FF" stroke-miterlimit="5.333" stroke-width=".071" d="M16.707 15.592h-4.132l-.035-.057 2.044-3.543h.043z"/><mask id="c" width="7" height="6" x="11" y="14" maskUnits="userSpaceOnUse" style="mask-type:luminance"><path fill="#fff" d="M17.435 19.79h-5.552v-4.793h5.552z"/></mask><g mask="url(#c)"><path fill="#29EFFF" fill-opacity=".8" d="m16.736 15.642-2.045 3.543h-.042l-2.073-3.593h4.132z" opacity=".95"/></g><path fill="#32F8B9" stroke="#32F8B9" stroke-miterlimit="5.333" stroke-width=".071" d="m18.836 11.94-2.108 3.65h-.021l-2.073-3.6h-4.196l-.029-.05.007-.013 2.095-3.635v-.007h4.217l2.073 3.592z"/><mask id="d" width="9" height="11" x="13" y="10" maskUnits="userSpaceOnUse" style="mask-type:luminance"><path fill="#fff" d="M22 20.513h-8.427V10.71H22z"/></mask><g mask="url(#d)"><path fill="#32F6B8" fill-opacity=".565" d="m20.942 15.587-2.109 3.649-4.21.057 2.087-3.6-.028-.05h.021l2.109-3.649-.036-.056h.064z" opacity=".85"/></g></svg>
