<svg xmlns="http://www.w3.org/2000/svg" fill="none" height="24" width="24" viewBox="0 0 24 24"><path fill="#A5B4FC" d="m15.952 9.394-3.798-2.193a.31.31 0 0 0-.308 0L8.048 9.394a.31.31 0 0 0-.154.266v4.387c0 .11.059.21.154.266l3.798 2.193a.31.31 0 0 0 .308 0l3.798-2.193a.31.31 0 0 0 .154-.267V9.66a.31.31 0 0 0-.154-.266"/><path fill="#4F46E5" d="m2.123 11.392 4.54-7.896C6.826 3.211 7.131 3 7.46 3h9.078c.33 0 .634.21.799.496l4.538 7.879a.94.94 0 0 1 0 .931l-4.538 7.831c-.165.286-.47.432-.8.432H7.462c-.33 0-.634-.142-.799-.427l-4.538-7.844a.89.89 0 0 1 0-.906m3.759 3.797c0 .116.07.223.17.281l5.782 3.336c.1.058.226.058.327 0l5.785-3.336a.33.33 0 0 0 .171-.281V8.518a.33.33 0 0 0-.17-.282l-5.781-3.335a.33.33 0 0 0-.327 0L6.053 8.236a.33.33 0 0 0-.172.282z"/></svg>
