<svg xmlns="http://www.w3.org/2000/svg" xmlns:xlink="http://www.w3.org/1999/xlink" fill="none" height="24" width="24" viewBox="0 0 24 24"><g fill="#64748B" clip-path="url(#a)"><path d="M13.408 18.047a.45.45 0 0 1-.449.45H7.617a.45.45 0 0 1-.449-.45c0-.248.201-.447.449-.46q.454-.022.703-.097.362-.117.362-.537 0-.293-.118-.596l-.373-.933a1 1 0 0 0-.929-.63H4.336a1 1 0 0 0-.937.65l-.079.21q-.273.723-.273 1.045 0 .585.45.742.28.096.615.133c.247.027.449.225.449.473a.45.45 0 0 1-.45.45H.45a.45.45 0 0 1-.449-.45c0-.248.203-.442.447-.489a1.7 1.7 0 0 0 .48-.165q.383-.205.723-.772.352-.576.752-1.621l3.653-9.565a.677.677 0 0 1 1.262-.005l3.865 9.883q.44 1.093.644 1.484.206.38.567.596.226.128.567.176c.246.035.448.23.448.478m-7.29-4.21a1 1 0 0 0 .93-1.367l-.333-.84c-.337-.852-1.544-.841-1.866.015l-.317.84a1 1 0 0 0 .936 1.353zm17.953 2.599c.2 0 .364.162.342.36a2.3 2.3 0 0 1-.283.91 1.9 1.9 0 0 1-.82.77 2.6 2.6 0 0 1-1.153.245q-.82 0-1.367-.381c-.431-.308-1.152-.533-1.614-.272q-1.155.653-2.322.653-1.054 0-1.728-.508a1.63 1.63 0 0 1-.674-1.358q0-.693.362-1.25.36-.566 1.054-1.005a8 8 0 0 1 1.67-.772q.78-.276 1.874-.571a.725.725 0 0 0 .538-.698q0-.694-.332-1.084-.322-.4-1.201-.4-.752 0-1.084.312t-.44.947q-.078.45-.292.742-.206.283-.87.283-.41 0-.722-.234-.313-.234-.313-.693 0-.909.987-1.582.986-.675 3.027-.674 2.148 0 2.95.722.81.723.81 1.934v3.086q0 .585.029.86.03.273.156.42.137.136.42.136.255 0 .44-.264a1 1 0 0 0 .142-.278c.061-.19.215-.357.414-.357m-4.501.366a.93.93 0 0 0 .38-.766v-.58c0-.676-.662-1.166-1.28-.894q-.78.345-1.083.682-.498.557-.498 1.094 0 .45.273.723.274.273.772.273.537 0 .947-.225.236-.129.489-.307"/></g><defs><clipPath id="a"><path fill="#fff" d="M0 0h24v24H0z"/></clipPath></defs></svg>
