<svg xmlns="http://www.w3.org/2000/svg" fill="none" height="24" width="24" viewBox="0 0 24 24"><path fill="#64748B" d="M5.939 5.37a3.763 3.763 0 0 1-2.712 4.696l-1.099.272a10.8 10.8 0 0 0 .012 3.4l1.015.244a3.763 3.763 0 0 1 2.728 4.723l-.35 1.187a10 10 0 0 0 2.792 1.734l.928-.976a3.763 3.763 0 0 1 5.454.001l.938.987a10 10 0 0 0 2.79-1.717l-.373-1.29a3.763 3.763 0 0 1 2.712-4.697l1.098-.271a10.8 10.8 0 0 0-.012-3.4l-1.014-.245a3.763 3.763 0 0 1-2.728-4.723l.35-1.186a10 10 0 0 0-2.792-1.735l-.928.976a3.76 3.76 0 0 1-5.454-.001l-.938-.987a10 10 0 0 0-2.79 1.717zM12 14.822c-1.506 0-2.727-1.263-2.727-2.822 0-1.558 1.22-2.822 2.727-2.822s2.727 1.264 2.727 2.822-1.22 2.822-2.727 2.822"/></svg>
