<svg xmlns="http://www.w3.org/2000/svg" fill="none" height="24" width="24" viewBox="0 0 24 24"><path fill="#F87171" d="m20.661 11.198-7.86-7.859a1.16 1.16 0 0 0-1.639 0L9.53 4.972l2.07 2.07a1.376 1.376 0 0 1 1.744 1.755l1.995 1.995a1.377 1.377 0 0 1 1.425 2.278 1.38 1.38 0 0 1-2.251-1.5l-1.86-1.861-.001 4.897q.198.097.365.26a1.38 1.38 0 1 1-1.5-.3V9.623a1.38 1.38 0 0 1-.749-1.809l-2.04-2.04-5.388 5.388a1.16 1.16 0 0 0 0 1.64l7.859 7.858a1.16 1.16 0 0 0 1.64 0l7.822-7.821a1.16 1.16 0 0 0 0-1.64"/></svg>
