<svg xmlns="http://www.w3.org/2000/svg" fill="none" height="24" width="24" viewBox="0 0 24 24"><path fill="#F472B6" d="M11.04 3.842a1.087 1.087 0 0 1 1.893 0l2.177 3.857c.269.477.733.813 1.27.922l4.345.875a1.083 1.083 0 0 1 .585 1.796l-3 3.26a1.88 1.88 0 0 0-.486 1.492l.51 4.398a1.085 1.085 0 0 1-1.531 1.11l-4.031-1.843a1.9 1.9 0 0 0-1.57 0l-4.03 1.843a1.086 1.086 0 0 1-1.531-1.11l.508-4.398a1.88 1.88 0 0 0-.485-1.492l-3-3.26a1.083 1.083 0 0 1 .585-1.796l4.345-.875a1.9 1.9 0 0 0 1.27-.922z"/><path fill="#151515" d="M11.987 2.902a1.47 1.47 0 0 0-1.295.743L8.516 7.502a1.5 1.5 0 0 1-1.001.726l-4.345.876c-1.115.224-1.57 1.624-.8 2.46l3 3.259a1.48 1.48 0 0 1 .382 1.175l-.51 4.398c-.13 1.128 1.06 1.993 2.096 1.52l4.03-1.842a1.5 1.5 0 0 1 1.237 0l4.031 1.842c1.035.473 2.226-.392 2.095-1.52l-.509-4.398a1.48 1.48 0 0 1 .382-1.175l3-3.26c.77-.836.315-2.235-.8-2.46l-4.345-.875a1.5 1.5 0 0 1-1-.726l-2.177-3.857a1.47 1.47 0 0 0-1.295-.743m0 .775c.23 0 .461.12.597.361l2.177 3.857c.326.579.889.987 1.54 1.118l4.345.876a.67.67 0 0 1 .37 1.132l-3 3.26a2.3 2.3 0 0 0-.59 1.809l.51 4.398a.673.673 0 0 1-.967.7l-4.03-1.843a2.3 2.3 0 0 0-1.904 0l-4.03 1.843a.673.673 0 0 1-.967-.7l.51-4.398a2.3 2.3 0 0 0-.59-1.81l-3-3.26a.67.67 0 0 1 .37-1.131l4.345-.876a2.3 2.3 0 0 0 1.54-1.118l2.177-3.857a.68.68 0 0 1 .597-.36"/><path fill="#151515" stroke="#000" stroke-width=".4" d="M10.767 14.531a.6.6 0 1 1 1.178-.231zm0 0c.031.16.094.313.184.449m-.184-.449.184.449m0 0c.09.136.207.253.343.344zm.79.53a1.3 1.3 0 0 1-.447-.186zm0 0c.16.033.326.033.486.002zm.935-.183c-.136.09-.289.153-.449.185zm0 0c.136-.09.253-.207.344-.342m-.344.342.06-1.498m0 0a.6.6 0 0 1 .47.707 1.2 1.2 0 0 1-.186.449m-.284-1.155a.6.6 0 0 0-.234 0m.234 0h-.234m.518 1.155-.166-.112zm-.997-.67.006-.015zm0 0-.012.012zm-.027.019Zm0 0h-.018l-.039.196.04-.196-.016-.007m.033.007-.033-.007m0 0-.012-.012zm.539-.498a.6.6 0 0 0-.217.09m.217-.09-.217.09m0 0a.6.6 0 0 0-.166.165m.166-.165-.166.165m0 0a.6.6 0 0 0-.09.216zm-3.35-.126a.987.987 0 1 0 0-1.973.987.987 0 0 0 0 1.973Zm6.435 0a.987.987 0 1 0 0-1.973.987.987 0 0 0 0 1.973Zm-3.423 1.357c.134.027.273.027.407 0l-.783-.157q.173.115.376.157Z"/></svg>
