<svg xmlns="http://www.w3.org/2000/svg" fill="none" height="24" width="24" viewBox="0 0 24 24"><path fill="#2DD4BF" d="M20.022 6.23a2.854 2.854 0 0 0-3.966-.07.28.28 0 0 0-.088.196c0 .074.03.145.081.197l.356.368a.27.27 0 0 0 .355.025c.282-.213.626-.327.98-.326a1.634 1.634 0 0 1 1.16 2.79c-2.266 2.266-5.29-4.082-12.154-.816a.933.933 0 0 0-.416 1.307l1.176 2.035a.933.933 0 0 0 1.262.347l.03-.017-.024.017.522-.293q.874-.543 1.642-1.226a.29.29 0 0 1 .376 0 .27.27 0 0 1 .102.207.28.28 0 0 1-.09.208 12.3 12.3 0 0 1-1.73 1.285h-.017l-.522.29c-.22.126-.47.191-.723.19a1.5 1.5 0 0 1-1.295-.742L5.927 10.28c-2.137 1.51-3.434 4.417-2.738 8.107a.274.274 0 0 0 .266.22h1.268a.27.27 0 0 0 .268-.237 1.856 1.856 0 0 1 3.684 0 .27.27 0 0 0 .27.237h1.235a.27.27 0 0 0 .268-.237 1.859 1.859 0 0 1 3.685 0 .27.27 0 0 0 .268.237h1.22a.27.27 0 0 0 .27-.266c.03-1.719.493-3.693 1.815-4.683 4.58-3.425 3.376-6.363 2.316-7.429m-4.67 5.181-.874-.438a.549.549 0 1 1 .873.44z"/></svg>
