<svg xmlns="http://www.w3.org/2000/svg" fill="none" height="24" width="24" viewBox="0 0 24 24"><path fill="#F472B6" fill-rule="evenodd" d="M11.9 5.564q.26-.001.5-.071l5.385 9.329a1.8 1.8 0 0 0-.5.864H6.514a1.8 1.8 0 0 0-.499-.864l5.387-9.33q.238.071.499.072M6.513 16.532l-.02.076 4.12 2.378c.324-.339.78-.55 1.287-.55s.963.211 1.287.55l4.12-2.378-.021-.076zm3.676 3.187L6.07 17.34a1.782 1.782 0 1 1-1.71-2.963V9.622A1.783 1.783 0 1 1 6.07 6.66l4.12-2.378A1.785 1.785 0 0 1 11.9 2a1.782 1.782 0 0 1 1.71 2.281l4.12 2.378a1.782 1.782 0 1 1 1.71 2.963v4.756a1.782 1.782 0 1 1-1.71 2.963l-4.12 2.378a1.782 1.782 0 1 1-3.42 0M5.206 9.622a1.783 1.783 0 0 0 1.287-2.23l4.12-2.378.055.055-5.386 9.33-.076-.021zm13.312 4.776.076-.02V9.622a1.783 1.783 0 0 1-1.288-2.23l-4.119-2.378-.055.055z" clip-rule="evenodd"/></svg>
