<svg xmlns="http://www.w3.org/2000/svg" fill="none" height="24" width="24" viewBox="0 0 24 24"><path fill="#EA580C" d="M6.061 2.718c-.972-.025-2.172.484-2.172.484l3.97 8.05-2.106 8.998c1.921 1.625 4.04.848 4.04.848l.975-6.963q.186.175.385.323c.424.3.882.528 1.34.705a10 10 0 0 0 2.345.581 2.2 2.2 0 0 0-.212 1.023c0 .035.018.07.053.088h.018c.335.176.687.317 1.075.406.37.07.776.105 1.164.052.405-.052.81-.211 1.128-.476a2.4 2.4 0 0 0 .687-.987l.018-.017v-.018l.053-.476v-.018c.176-.105.352-.211.529-.352.211-.176.405-.37.546-.617a1.55 1.55 0 0 0 .212-.846c-.018-.282-.124-.564-.247-.811a3.6 3.6 0 0 0-.458-.688 4.8 4.8 0 0 0-1.234-1.005 6.2 6.2 0 0 0-1.428-.67l-.194-.053-.159-.052c-.105-.036-.194-.088-.282-.124a1.1 1.1 0 0 1-.388-.352c-.176-.265-.194-.67-.106-1.093.018-.106.053-.212.089-.317s.07-.212.105-.335q.039-.176.049-.356l2.356-2.061c-.184-.678-2.218-1.385-2.218-1.385L9.948 9.346 6.46 2.764a2 2 0 0 0-.399-.046m8.688 5.9a3 3 0 0 0-.052.586c.018.3.106.635.3.917s.458.494.723.617a2.4 2.4 0 0 0 .405.159l.212.053.176.035c.458.123.899.3 1.304.529.406.229.794.51 1.11.828.318.317.565.723.6 1.128.018.283-.017.494-.106.67-.088.194-.229.37-.387.53a2 2 0 0 1-.23.193 2.2 2.2 0 0 0-.052-.476 1.3 1.3 0 0 0-.07-.247c-.036-.07-.071-.158-.16-.211-.017 0-.035 0-.035.017a1.65 1.65 0 0 1-.476.653 1.2 1.2 0 0 1-.687.246c-.247.018-.512-.035-.776-.105s-.529-.159-.793-.247l-.036-.018a.17.17 0 0 0-.158.036c-.14.176-.247.334-.37.51q-.125.198-.23.406c-.317-.123-.616-.229-.934-.352-.44-.177-.881-.353-1.287-.564a6.5 6.5 0 0 1-1.18-.688c-.255-.19-.49-.39-.66-.62l.193-1.385z"/></svg>
