<svg xmlns="http://www.w3.org/2000/svg" fill="none" height="24" width="24" viewBox="0 0 24 24"><path fill="#2563EB" stroke="#2563EB" stroke-width=".5" d="M12 21a9 9 0 1 0 0-18 9 9 0 0 0 0 18Zm0-16.875c.739 0 1.583.664 2.274 2.147.245.524.458 1.127.63 1.79H9.096c.171-.663.384-1.266.629-1.79.691-1.483 1.535-2.147 2.274-2.147Zm-3.294 1.67c-.31.667-.57 1.432-.768 2.268h-2.76a7.9 7.9 0 0 1 4.25-3.509 7.5 7.5 0 0 0-.722 1.242Zm-.99 3.393A18 18 0 0 0 7.5 12c0 .98.076 1.926.217 2.813H4.642A7.9 7.9 0 0 1 4.125 12c0-.99.183-1.94.517-2.812zm.222 6.75c.198.835.457 1.6.768 2.266.21.45.451.87.723 1.242a7.9 7.9 0 0 1-4.25-3.509zm1.159 0h5.806a10.4 10.4 0 0 1-.629 1.79c-.691 1.483-1.535 2.147-2.274 2.147s-1.583-.664-2.274-2.147a10.4 10.4 0 0 1-.63-1.79Zm6.046-1.126H8.857A17 17 0 0 1 8.625 12c0-.994.083-1.94.232-2.812h6.286c.15.871.232 1.818.232 2.812s-.083 1.94-.232 2.813Zm.919 1.126h2.76a7.9 7.9 0 0 1-4.25 3.508 7.6 7.6 0 0 0 .722-1.242c.31-.666.57-1.43.768-2.267Zm3.296-1.126h-3.075c.141-.886.217-1.832.217-2.812s-.076-1.926-.217-2.812h3.075c.334.873.517 1.821.517 2.812s-.183 1.94-.517 2.813ZM14.57 4.555a7.9 7.9 0 0 1 4.25 3.508h-2.759c-.198-.835-.457-1.6-.768-2.266a7.5 7.5 0 0 0-.723-1.242Z"/></svg>
