<svg xmlns="http://www.w3.org/2000/svg" fill="none" height="24" width="24" viewBox="0 0 24 24"><path fill="#64748B" fill-rule="evenodd" d="M7.682 16.658a12.2 12.2 0 0 0 4.253.738c5.236 0 8.487-3.016 9.753-4.933a.85.85 0 0 0-.066-1.023 14 14 0 0 0-1.582-1.58l-4.221 2.322a3.74 3.74 0 0 1-5.65 3.107zm1.774-7.253L2.754 13.09a8 8 0 0 1-.453-.645.85.85 0 0 1 .066-.992c1.513-1.864 5.028-4.85 9.568-4.85.76 0 1.492.084 2.192.231l-2.893 1.592a3.74 3.74 0 0 0-1.778.978m2.05 5.15q.244.049.501.05a2.5 2.5 0 0 0 2.338-1.612z" clip-rule="evenodd"/><path stroke="#64748B" stroke-linecap="round" stroke-width="1.5" d="M2.296 16.481 20.981 6.204"/></svg>
