<svg xmlns="http://www.w3.org/2000/svg" fill="none" height="24" width="24" viewBox="0 0 24 24"><path fill="#2563EB" fill-rule="evenodd" d="M12 4.4a7.6 7.6 0 1 0 7.573 6.951 7.6 7.6 0 0 0-.28-1.498l.02-.001q.155-.01.305-.034a2.86 2.86 0 0 0 1.823-1.12A9.9 9.9 0 0 1 22 12c0 5.523-4.477 10-10 10S2 17.523 2 12 6.477 2 12 2a9.96 9.96 0 0 1 5.95 1.962 2.188 2.188 0 1 1 .613 4.288 2.188 2.188 0 0 1-2.172-2.454A7.56 7.56 0 0 0 12 4.4m0 11.975A4.38 4.38 0 0 0 16.375 12 4.38 4.38 0 0 0 12 7.625 4.38 4.38 0 0 0 7.625 12 4.38 4.38 0 0 0 12 16.375" clip-rule="evenodd"/></svg>
