<svg xmlns="http://www.w3.org/2000/svg" fill="none" height="24" width="24" viewBox="0 0 24 24"><path fill="#F472B6" d="m15.047 7.453-1.219 2.462c.4.371.683.86.795 1.414h.919a2.64 2.64 0 0 1 .736-1.361z"/><path fill="#F472B6" d="m12.803 9.32 2.244-4.535 2.238 4.564q.133-.043.265-.076L19.678 3h-9.265l2.12 6.255c.088.018.183.041.271.065m-.772 4.011a1.486 1.486 0 0 0 1.078-2.509l-.005-.006a1 1 0 0 0-.2-.17l-.007-.007c-.017-.011-.04-.03-.064-.04-.006 0-.006-.007-.012-.007-.024-.011-.047-.03-.07-.041h-.007c-.023-.012-.053-.03-.076-.041h-.006a.4.4 0 0 0-.07-.03c-.007 0-.013-.005-.019-.005-.017-.006-.04-.018-.059-.024-.005 0-.011-.006-.023-.006-.024-.006-.047-.018-.07-.024h-.007c-.03-.005-.053-.011-.082-.017q-.007.002-.024-.006c-.023-.006-.04-.006-.064-.012-.012 0-.018 0-.03-.006-.018 0-.041-.006-.059-.006h-.23c-.023 0-.04.006-.064.006h-.024c-.023.006-.047.006-.07.012h-.018l-.083.018a1.49 1.49 0 0 0-1.13 1.443 1.506 1.506 0 0 0 1.495 1.478m6.244-2.968h-.012c-.023 0-.041-.006-.065-.006h-.076q-.044-.002-.094.006h-.03c-.023 0-.047.005-.07.005-.006 0-.018 0-.024.006l-.088.018h-.006l-.083.018c-.006 0-.018.006-.023.006q-.035.006-.071.023c-.006 0-.012.006-.018.006q-.046.018-.082.035l-.083.036c-.005 0-.011.006-.017.006l-.071.04s-.006 0-.006.007a1 1 0 0 0-.153.106l-.006.006a1.6 1.6 0 0 0-.206.194 1.5 1.5 0 0 0-.36.972 1.486 1.486 0 1 0 1.773-1.46.6.6 0 0 0-.129-.024m-12.4 2.967a1.485 1.485 0 1 0 0-2.97 1.485 1.485 0 0 0 0 2.97"/><path fill="#F472B6" d="M18.128 14.48a2.64 2.64 0 0 1-2.55-1.973h-.99a2.64 2.64 0 0 1-2.957 1.943 8 8 0 0 1-1.225 1.455 8.1 8.1 0 0 1-2.827 1.755l-.242.089-.224-.118c-1.237-.636-1.873-1.926-1.649-3.175a2.3 2.3 0 0 1-.406-.106c-.024.041-.042.088-.065.136-.377.777-.772 1.578-.913 2.438-.153.919-.218 2.598 1.078 3.493.565.389 1.16.583 1.826.583 1.278 0 2.656-.683 4.117-1.408 1.143-.565 2.32-1.154 3.546-1.455a15 15 0 0 1 1.39-.247c.83-.118 1.62-.236 2.262-.607a2.6 2.6 0 0 0 1.16-3.163 2.66 2.66 0 0 1-1.331.36"/></svg>
