<svg xmlns="http://www.w3.org/2000/svg" fill="none" height="24" width="24" viewBox="0 0 24 24"><path fill="#F59E0B" d="M8.383 7.318h2.127v7.1q0 .984-.442 1.71a2.9 2.9 0 0 1-1.218 1.118q-.78.393-1.815.393-.92 0-1.67-.323a2.67 2.67 0 0 1-1.183-.994q-.438-.672-.433-1.686h2.143q.01.404.164.691.159.284.432.438.279.15.657.15.397 0 .67-.17.279-.174.423-.507.145-.334.145-.82zm9.43 2.928q-.06-.6-.511-.934-.453-.333-1.228-.333-.527 0-.89.149-.363.144-.557.403a.97.97 0 0 0-.19.586.84.84 0 0 0 .115.477q.13.204.353.353.225.145.517.254.294.105.627.179l.915.219q.666.15 1.223.397.556.249.964.612t.631.855a2.7 2.7 0 0 1 .234 1.129q-.005.934-.477 1.62-.468.68-1.353 1.06-.88.372-2.122.372-1.233 0-2.148-.378-.91-.378-1.422-1.118-.507-.745-.532-1.845h2.083q.035.513.293.855.264.339.702.513.442.168.999.168.546 0 .95-.159.407-.159.63-.442t.224-.651a.85.85 0 0 0-.203-.577q-.2-.233-.587-.398a6 6 0 0 0-.94-.298l-1.108-.278q-1.288-.314-2.034-.98t-.74-1.795q-.006-.925.492-1.615.501-.69 1.377-1.08.874-.387 1.989-.387 1.133 0 1.978.388.85.387 1.323 1.079.471.69.487 1.6z"/></svg>
