<svg width="24" height="24" viewBox="0 0 24 24" fill="none" xmlns="http://www.w3.org/2000/svg">
<path d="M5.3478 5.10116C5.70716 5.01185 6.07862 4.98138 6.44774 5.01093C8.68454 5.01359 10.9204 5.01359 13.1553 5.01093C13.5351 5.00339 13.9086 5.10842 14.2289 5.3128C14.5491 5.51717 14.8017 5.81174 14.9548 6.15941C15.0738 6.44997 15.1183 6.76564 15.0842 7.07776C15.0502 7.38989 14.9388 7.68856 14.76 7.94666C14.5812 8.20476 14.3408 8.4141 14.0605 8.55568C13.7803 8.69725 13.4691 8.76657 13.1553 8.75733C10.7472 8.75467 8.33902 8.75467 5.93089 8.75733C5.46021 8.76845 5.00242 8.60299 4.6476 8.29352C4.29279 7.98405 4.06666 7.55298 4.01372 7.08516C3.96431 6.64991 4.0714 6.21128 4.31583 5.84777C4.56026 5.48427 4.92608 5.21961 5.3478 5.10116ZM17.595 5.08803C18.0534 4.96893 18.5397 5.02464 18.9593 5.24431C19.3789 5.46399 19.7018 5.8319 19.8651 6.27648C19.9463 6.50637 19.981 6.75013 19.967 6.99354C19.953 7.23696 19.8906 7.47514 19.7835 7.69419C19.6764 7.91323 19.5268 8.10875 19.3433 8.26932C19.1598 8.4299 18.9462 8.55231 18.7149 8.62941C18.4462 8.728 18.1586 8.76429 17.8738 8.73551C17.589 8.70674 17.3144 8.61366 17.0708 8.4633C16.8273 8.31294 16.621 8.10922 16.4677 7.86752C16.3143 7.62582 16.2178 7.35245 16.1855 7.06802C16.1406 6.62323 16.2588 6.17728 16.5181 5.81309C16.7773 5.44889 17.16 5.19123 17.595 5.08803ZM10.2455 10.3918C10.6096 10.3312 10.9791 10.3099 11.3478 10.3284C13.5882 10.3336 15.8303 10.3284 18.0707 10.3324C18.3181 10.3268 18.5641 10.3708 18.7942 10.4617C19.0244 10.5527 19.234 10.6887 19.4107 10.8619C19.5875 11.0351 19.7278 11.2419 19.8234 11.4701C19.919 11.6984 19.968 11.9434 19.9675 12.1909C19.967 12.4383 19.9169 12.6832 19.8203 12.911C19.7237 13.1388 19.5825 13.345 19.405 13.5174C19.2275 13.6898 19.0173 13.825 18.7868 13.9149C18.5563 14.0049 18.3101 14.0478 18.0627 14.0411C15.607 14.0411 13.1513 14.0463 10.6956 14.0411C10.2382 14.0386 9.79842 13.8647 9.46303 13.5538C9.12765 13.2428 8.92105 12.8174 8.88404 12.3615C8.84075 11.9251 8.95387 11.4875 9.20323 11.1268C9.4526 10.766 9.82199 10.5055 10.2455 10.3918ZM5.44717 15.4877C5.69623 15.4503 5.94814 15.4352 6.19988 15.4426C8.56537 15.4517 10.9297 15.4386 13.2941 15.4489C13.5415 15.4546 13.7853 15.5098 14.0111 15.611C14.237 15.7122 14.4403 15.8575 14.6093 16.0384C14.7782 16.2192 14.9093 16.432 14.9949 16.6642C15.0806 16.8964 15.119 17.1434 15.1079 17.3906C15.0786 17.86 14.8748 18.3014 14.5367 18.6283C14.1985 18.9551 13.7504 19.1437 13.2804 19.157C10.7885 19.1597 8.29657 19.1597 5.80468 19.157C5.35284 19.1445 4.9211 18.9675 4.59047 18.6593C4.25984 18.3511 4.05304 17.9328 4.00888 17.483C3.96472 17.0331 4.08624 16.5826 4.35063 16.216C4.61502 15.8494 5.00411 15.5919 5.44489 15.4917L5.44717 15.4877ZM17.4688 15.5306C17.9315 15.3793 18.4343 15.4094 18.8757 15.6148C19.317 15.8201 19.6639 16.1854 19.8463 16.6368C19.9387 16.8961 19.9734 17.1725 19.9477 17.4467C19.922 17.7208 19.8367 17.986 19.6977 18.2237C19.5586 18.4614 19.3693 18.6657 19.1429 18.8225C18.9166 18.9792 18.6587 19.0845 18.3873 19.1311C18.1159 19.1776 17.8376 19.1641 17.572 19.0917C17.3063 19.0193 17.0598 18.8896 16.8495 18.7118C16.6393 18.534 16.4705 18.3124 16.355 18.0624C16.2395 17.8125 16.1801 17.5403 16.181 17.265C16.1816 16.8761 16.3071 16.4977 16.5389 16.1855C16.7708 15.8732 17.0967 15.6437 17.4688 15.5306Z" fill="#F75D3C"/>
<path d="M5.34555 10.3729C5.68668 10.2698 6.04996 10.2649 6.39377 10.3587C6.73758 10.4525 7.04802 10.6412 7.28953 10.9033C7.53104 11.1654 7.69386 11.4902 7.75933 11.8405C7.82479 12.1908 7.79027 12.5525 7.65971 12.884C7.52915 13.2156 7.30783 13.5038 7.0211 13.7154C6.73437 13.927 6.39383 14.0536 6.03848 14.0807C5.68314 14.1078 5.32735 14.0342 5.01188 13.8684C4.69641 13.7026 4.43402 13.4513 4.25475 13.1433C4.11242 12.8954 4.02769 12.6185 4.00684 12.3334C3.98599 12.0482 4.02956 11.762 4.13431 11.496C4.23906 11.2299 4.40231 10.9909 4.61198 10.7965C4.82164 10.6021 5.07236 10.4573 5.34555 10.3729Z" fill="#F93748"/>
</svg>
