<svg xmlns="http://www.w3.org/2000/svg" fill="none" height="24" width="24" viewBox="0 0 24 24"><path fill="#2DD4BF" d="m16.27 9.09-.007-.003-.011-.006a.05.05 0 0 1-.014-.046l.383-2.345 1.798 1.8-1.87.795-.016.003h-.008l-.01-.009a.9.9 0 0 0-.245-.189m2.608-.143 1.923 1.923c.4.4.6.6.672.83q.016.053.027.104l-4.595-1.946q-.004 0-.008-.003c-.018-.007-.04-.016-.04-.034 0-.02.023-.028.041-.036l.006-.002zm2.544 3.474c-.1.187-.293.38-.62.708l-2.168 2.168-2.804-.584-.015-.003c-.025-.004-.051-.009-.051-.031a.85.85 0 0 0-.325-.592c-.011-.011-.008-.029-.005-.045l.001-.007.527-3.238.002-.01c.003-.025.008-.054.03-.054a.86.86 0 0 0 .576-.33q.005-.008.013-.014c.016-.007.035 0 .051.008zm-3.287 3.374L14.57 19.36l.61-3.75.002-.005.002-.015q.01-.017.03-.021l.007-.003a.9.9 0 0 0 .345-.257c.011-.013.026-.027.044-.03h.014zm-4.32 4.32-.4.401-4.443-6.42-.005-.007c-.007-.01-.015-.019-.013-.03q.001-.01.01-.02l.006-.007.037-.06.01-.018.001-.002q.01-.019.026-.03.016-.005.036 0L14 14.937a.1.1 0 0 1 .038.016q.009.01.01.022a.87.87 0 0 0 .51.583c.013.007.007.022.001.038l-.008.023zm-.838.838c-.297.294-.471.449-.669.511a1 1 0 0 1-.598 0c-.231-.073-.431-.272-.83-.672L6.418 16.33l1.166-1.807a.1.1 0 0 1 .02-.023c.012-.009.03-.005.045 0 .267.08.554.066.812-.041.014-.005.027-.009.037 0q.008.007.014.017zM5.988 15.9l-1.023-1.023 2.021-.862.016-.004c.017 0 .027.017.036.033q.03.046.065.09l.006.009q.007.013-.004.025zm-1.476-1.476L3.217 13.13c-.22-.22-.38-.38-.49-.517l3.936.816.015.003c.024.004.051.008.051.031 0 .025-.03.036-.054.046l-.011.005zM2.5 11.946a1 1 0 0 1 .045-.245c.073-.232.272-.431.672-.83l1.657-1.658q1.144 1.661 2.295 3.318c.013.017.028.037.013.052-.073.08-.145.167-.196.262a.1.1 0 0 1-.025.03c-.006.005-.013.003-.02.002h-.002zM5.318 8.77l2.227-2.228c.21.092.972.414 1.653.701.516.219.986.417 1.134.482q.024.007.035.026.005.015 0 .03a1 1 0 0 0 .26.907c.014.015 0 .036-.014.055l-.007.01-2.262 3.504a.1.1 0 0 1-.021.024c-.012.008-.029.005-.043.001a1 1 0 0 0-.27-.037c-.08 0-.169.015-.258.032-.01.001-.02.003-.027-.003a.1.1 0 0 1-.023-.025zm2.677-2.678 2.885-2.884c.399-.4.599-.6.83-.672a1 1 0 0 1 .598 0c.232.073.431.273.83.672l.626.625-2.051 3.177a.1.1 0 0 1-.02.024c-.013.008-.03.005-.045 0a1.04 1.04 0 0 0-.953.183c-.013.014-.033.006-.05-.001-.268-.117-2.351-.997-2.65-1.124M14.2 4.27l1.894 1.893-.456 2.827v.008l-.004.018c-.005.01-.015.012-.025.015a.9.9 0 0 0-.301.157l-.022-.004L12.4 7.957l-.005-.003c-.019-.007-.04-.016-.04-.035a1.1 1.1 0 0 0-.154-.454c-.014-.023-.03-.046-.018-.07zm-1.95 4.269 2.705 1.146c.015.007.032.013.038.028a.1.1 0 0 1 0 .029 1 1 0 0 0-.015.13v.076c0 .019-.02.027-.037.034l-.005.002c-.43.183-6.018 2.566-6.026 2.566q-.014.002-.026-.008c-.015-.015 0-.036.013-.055l.007-.01 2.224-3.442.004-.006c.012-.021.027-.044.051-.044l.023.003q.074.012.14.014c.337 0 .65-.165.838-.445l.017-.02c.014-.01.033-.005.049.002m-3.1 4.555 6.092-2.598s.009 0 .017.009a1 1 0 0 0 .09.076l.013.008c.012.007.024.015.025.028v.013l-.522 3.205-.002.013c-.004.025-.007.053-.03.053a.86.86 0 0 0-.682.42l-.002.004q-.01.019-.025.029-.017.006-.035 0l-4.858-1.002c-.005 0-.075-.257-.08-.258"/></svg>
