<svg xmlns="http://www.w3.org/2000/svg" fill="none" height="24" width="24" viewBox="0 0 24 24"><path fill="#14B8A6" d="M11.99 1.65c-.17 0-.34.044-.493.131L3.352 6.487a.98.98 0 0 0-.492.852v9.41a.98.98 0 0 0 .492.852l8.145 4.701a.98.98 0 0 0 .984 0l8.147-4.7a.98.98 0 0 0 .492-.853v-9.41a.98.98 0 0 0-.492-.852l-8.147-4.705a1 1 0 0 0-.492-.132M6.663 5.674s.943 2.643 2.838 2.555l2.22-1.277a.6.6 0 0 1 .273-.079h.05q.147.005.273.08l2.22 1.276c1.895.088 2.837-2.555 2.837-2.555.419 1.853.085 3.092-.474 3.916l.364.209a.6.6 0 0 1 .299.52l-.01 7.664a.298.298 0 0 1-.447.258l-2.94-1.683a.6.6 0 0 1-.298-.519v-3.58a.6.6 0 0 0-.3-.518l-1.25-.72a.58.58 0 0 0-.597 0l-1.252.72a.6.6 0 0 0-.299.517v3.581a.6.6 0 0 1-.298.519l-2.94 1.683a.29.29 0 0 1-.297 0 .29.29 0 0 1-.15-.258l-.01-7.665a.6.6 0 0 1 .299-.519l.363-.21c-.558-.823-.893-2.062-.474-3.915"/></svg>
