<svg xmlns="http://www.w3.org/2000/svg" fill="none" height="24" width="24" viewBox="0 0 24 24"><path fill="#FBBF24" fill-rule="evenodd" d="M7.326 4.696A1.826 1.826 0 0 0 5.5 6.522v10.956c0 1.009.818 1.826 1.826 1.826h10.348a1.826 1.826 0 0 0 1.826-1.826V6.522a1.826 1.826 0 0 0-1.826-1.826zm5.044 2.346c.953-.087 1.887-.05 2.804.218.584.172 1.122.437 1.588.842.671.585 1.061 1.33 1.186 2.217.121.86.042 1.692-.366 2.471a3 3 0 0 1-1.07 1.141l-.044.029c-1.052.644-2.042.917-3.118 1.003a11 11 0 0 1-.398-1.104 9 9 0 0 1-.149-.584l-.057-.243q-.006-.029-.007-.062v-.003l-.003-.034.111.012.01.001q.127.016.25.024c.463.026.895-.054 1.24-.403.193-.195.3-.439.354-.706a2.3 2.3 0 0 0-.023-1.038c-.119-.448-.398-.747-.827-.889-.48-.158-.97-.16-1.453-.016-.526.157-.843.531-.991 1.062-.13.464-.135.937-.093 1.413.097 1.08.412 2.099.824 3.089.136.326.286.646.436.966l.003.006.23.501.016.038-.04.002-.068.003h-.833q-1.408 0-2.815.002c-.075 0-.11-.024-.139-.094a13 13 0 0 1-.66-2.29c-.172-.862-.28-1.733-.267-2.615.013-.836.137-1.65.48-2.416.478-1.069 1.28-1.779 2.35-2.189a6 6 0 0 1 1.539-.354" clip-rule="evenodd"/></svg>
