<svg xmlns="http://www.w3.org/2000/svg" fill="none" height="24" width="24" viewBox="0 0 24 24"><path fill="#F87171" d="m4.784 13.813 1.23-1.23 5.404 5.402-1.231 1.231a2.676 2.676 0 0 1-3.785 0l-1.618-1.618a2.676 2.676 0 0 1 0-3.785m14.432-3.626-1.231 1.23-5.403-5.402 1.231-1.23a2.676 2.676 0 0 1 3.785 0l1.618 1.617a2.676 2.676 0 0 1 0 3.785m-5.403 9.029a2.676 2.676 0 0 0 3.785 0l1.618-1.618a2.676 2.676 0 0 0 0-3.785l-9.03-9.03a2.676 2.676 0 0 0-3.784 0l-1.618 1.62a2.676 2.676 0 0 0 0 3.785zM9.53 11.382a.618.618 0 1 1 0 1.236.618.618 0 0 1 0-1.236m3.088 3.089a.618.618 0 1 1-1.235 0 .618.618 0 0 1 1.235 0m0-2.471a.618.618 0 1 1-1.235 0 .618.618 0 0 1 1.235 0M12 8.912a.618.618 0 1 1 0 1.235.618.618 0 0 1 0-1.235M15.088 12a.618.618 0 1 1-1.235 0 .618.618 0 0 1 1.235 0"/></svg>
