<svg xmlns="http://www.w3.org/2000/svg" fill="none" height="24" width="24" viewBox="0 0 24 24"><path stroke="#F87171" stroke-linejoin="round" stroke-width="2" d="M6 3a1 1 0 0 0-1 1v16a1 1 0 0 0 1 1h12a1 1 0 0 0 1-1V8a1 1 0 0 0-.375-.78l-5-4A1 1 0 0 0 13 3z"/><path stroke="#F87171" stroke-linejoin="round" stroke-width="2" d="M12 4v5h6"/><path fill="#F87171" d="M15.828 16.018c-.598-.64-2.23-.379-2.62-.332-.575-.568-.965-1.254-1.103-1.49a7 7 0 0 0 .368-1.965c0-.592-.23-1.231-.874-1.231a.67.67 0 0 0-.551.331c-.276.497-.161 1.492.275 2.51-.252.733-.482 1.443-1.126 2.698-.666.283-2.068.946-2.183 1.656a.64.64 0 0 0 .184.592c.16.142.368.213.574.213.85 0 1.678-1.207 2.253-2.225a15 15 0 0 1 2-.544c.896.804 1.677.923 2.09.923.552 0 .759-.237.828-.45.115-.237.046-.497-.115-.686m-.574.402c-.024.166-.23.331-.598.237a3.1 3.1 0 0 1-1.172-.616c.299-.047.965-.118 1.448-.023.184.047.367.165.322.402m-3.839-4.876c.046-.07.115-.118.184-.118.207 0 .253.26.253.473a5.3 5.3 0 0 1-.276 1.468c-.344-.947-.276-1.61-.16-1.823m-.045 4.592a14 14 0 0 0 .528-1.325c.207.355.552.78.736.97 0 .024-.713.166-1.264.355m-1.356.947c-.53.9-1.08 1.467-1.38 1.467a.3.3 0 0 1-.137-.047q-.104-.07-.07-.213c.07-.331.667-.781 1.587-1.207"/><path fill="#F87171" fill-rule="evenodd" d="M10.877 11.228a.86.86 0 0 1 .722-.428.95.95 0 0 1 .85.492c.163.275.224.622.224.939v.007a7.2 7.2 0 0 1-.35 1.933c.158.27.491.823.958 1.305.237-.031.69-.09 1.163-.081.275.004.564.031.829.101.263.07.517.188.701.385l.007.007c.195.23.297.569.148.89a.77.77 0 0 1-.308.398c-.17.113-.402.178-.705.178-.446 0-1.244-.126-2.15-.908-.677.133-1.347.339-1.805.494-.283.495-.628 1.037-1.01 1.463-.392.436-.862.797-1.379.797-.251 0-.506-.086-.707-.263l-.005-.005-.006-.006a.84.84 0 0 1-.237-.768c.04-.232.178-.44.348-.619.173-.182.394-.35.625-.5.433-.28.925-.51 1.262-.656.574-1.126.805-1.8 1.036-2.473l.022-.062a5.4 5.4 0 0 1-.39-1.435c-.051-.454-.015-.877.153-1.179zm.344.204c-.107.195-.15.517-.104.936.046.415.178.898.39 1.391l-.119-.324a4.1 4.1 0 0 1-.264-1.247c-.012-.325.033-.586.115-.739l.004-.007.005-.006a.43.43 0 0 1 .351-.21q.149.002.255.09a.5.5 0 0 1 .135.191c.051.128.063.277.063.392v.01a5.5 5.5 0 0 1-.286 1.522l-.183.538-.048-.13-.022.066-.047.135c-.237.69-.48 1.4-1.09 2.59l-.034.064-.066.029c-.33.14-.835.372-1.269.652-.216.14-.409.289-.552.44q-.216.23-.244.412l-.001.01c-.03.139.01.283.126.405.12.104.277.158.436.158.334 0 .703-.243 1.081-.664.37-.413.712-.954.998-1.46l.037-.065.072-.025a15 15 0 0 1 2.027-.552l.097-.018.074.066c.856.768 1.588.872 1.958.872.247 0 .396-.053.484-.112a.37.37 0 0 0 .153-.2l.004-.013.006-.012c.071-.146.037-.321-.084-.466-.115-.12-.288-.21-.509-.268l-.056-.014a.7.7 0 0 1 .208.14c.107.11.163.263.129.444-.05.328-.416.508-.845.398l-.002-.001a3.3 3.3 0 0 1-1.247-.654l-.343-.283.12-.019-.067-.065c-.574-.569-.97-1.248-1.12-1.507l-.015-.026-.045-.077.028-.085a7 7 0 0 0 .358-1.907c0-.273-.055-.54-.168-.732a.55.55 0 0 0-.506-.295.47.47 0 0 0-.378.232m.367.215c-.033.066-.075.24-.065.526q.007.187.048.423a5 5 0 0 0 .081-.701.7.7 0 0 0-.034-.237l-.015-.028zm.258 2.676.225.387c.197.339.532.752.706.932l.057.058v.081a.2.2 0 0 1-.087.166.2.2 0 0 1-.04.023l-.045.016q-.04.013-.098.027l-.173.044-.134.033a11 11 0 0 0-.823.235l-.454.157.21-.433a14 14 0 0 0 .518-1.3zm.105.935a17 17 0 0 1-.22.558 16 16 0 0 1 .54-.142 7 7 0 0 1-.32-.416m2.084.924q.315.184.672.281c.303.078.348-.07.348-.07l.002-.011a.1.1 0 0 0 0-.06.1.1 0 0 0-.022-.035.33.33 0 0 0-.148-.074 3.6 3.6 0 0 0-.852-.03m-3.525.45-.324.552c-.27.459-.548.84-.803 1.107a2.2 2.2 0 0 1-.371.323.7.7 0 0 1-.377.136c-.097 0-.183-.045-.222-.065l-.008-.004-.011-.006-.01-.007a.37.37 0 0 1-.147-.192.4.4 0 0 1-.004-.23.84.84 0 0 1 .189-.353q.141-.166.359-.33a6.4 6.4 0 0 1 1.148-.662zM8.728 18.15a.45.45 0 0 0-.105.18v.007l-.002.005.017.007h.002a.4.4 0 0 0 .152-.069q.128-.083.3-.264.16-.166.334-.402-.232.136-.403.267a2 2 0 0 0-.295.269" clip-rule="evenodd"/></svg>
