<svg xmlns="http://www.w3.org/2000/svg" fill="none" height="24" width="24" viewBox="0 0 24 24"><path fill="#0D9488" d="m16.571 6.465.44-2.395a9 9 0 0 0-2.153-1.053l-1.622 1.816c-.79-.144-1.6-.15-2.391-.014L9.243 2.98a9 9 0 0 0-2.167 1.027l.409 2.4A6.9 6.9 0 0 0 5.98 8.27l-2.433.105A9 9 0 0 0 3 10.708l2.133 1.177c.034.802.21 1.592.517 2.335l-1.435 1.969c.408.69.907 1.325 1.482 1.883l2.25-.933c.65.474 1.378.83 2.15 1.052l.643 2.35a9 9 0 0 0 2.397.015l.672-2.341a6.8 6.8 0 0 0 2.162-1.025l2.238.962a9 9 0 0 0 1.506-1.866l-1.41-1.986a6.9 6.9 0 0 0 .548-2.329L21 10.821a9 9 0 0 0-.519-2.34l-2.431-.136a6.9 6.9 0 0 0-1.48-1.88z"/><path fill="#CCFBF1" d="M12.14 17.208a5.692 5.692 0 1 0 0-11.384 5.692 5.692 0 0 0 0 11.384"/><path fill="#2DD4BF" d="M8.115 14.195c1.486 2.57 4.487 3.429 3.77-1.893a1.5 1.5 0 0 0-.624-1.027c-4.458-3.138-4.767.116-3.146 2.92m2.788-1.492c.126-.03.224.024.269.15.591 1.656-.47 2.258-1.213 1.888-.681-.34-.681-1.629.944-2.037m-.387-.985c.087.103.085.215-.006.308-1.164 1.205-2.28.56-2.236-.197.05-.828 1.101-1.448 2.242-.11"/><path fill="#2DD4BF" d="M11.16 15.03c.66-.381.629-1.674-.072-2.887-.7-1.213-1.803-1.887-2.464-1.506-.66.382-.628 1.674.072 2.887s1.804 1.887 2.464 1.506m.67-8.339c-2.968.002-5.213 2.171-.246 4.21.387.16.82.149 1.2-.027 4.948-2.29 2.283-4.186-.956-4.184zm-.101 3.16c-.036.125-.132.183-.264.16-1.73-.317-1.721-1.537-1.029-1.995.635-.419 1.752.225 1.293 1.837zm1.046.157c-.132.024-.23-.032-.264-.159-.462-1.61.655-2.256 1.29-1.838.691.457.704 1.677-1.026 1.996z"/><path fill="#2DD4BF" d="M12.12 10.292c1.4 0 2.535-.618 2.535-1.38 0-.764-1.135-1.382-2.536-1.382-1.4 0-2.536.618-2.536 1.381s1.136 1.381 2.536 1.381m4.353 3.37c1.482-2.573.726-5.6-3.525-2.318-.33.255-.54.636-.577 1.054-.49 5.43 2.484 4.07 4.102 1.265zm-2.686-1.669c-.09-.094-.092-.206-.006-.307 1.14-1.34 2.191-.721 2.242.107.047.759-1.07 1.404-2.236.2m-.66.828c.045-.127.143-.18.27-.15 1.624.405 1.626 1.696.946 2.035-.74.37-1.803-.227-1.216-1.885"/><path fill="#2DD4BF" d="M15.599 13.492c.7-1.213.732-2.505.072-2.887-.66-.381-1.764.293-2.464 1.506s-.733 2.506-.072 2.887c.66.381 1.764-.293 2.464-1.506"/></svg>
