<svg xmlns="http://www.w3.org/2000/svg" fill="none" height="24" width="24" viewBox="0 0 24 24"><path fill="#F59E0B" d="M20 7.768a1 1 0 0 1-1 1h-2.768a1 1 0 0 1-1-1V5a1 1 0 0 1 1-1H19a1 1 0 0 1 1 1zm-5.616 0a1 1 0 0 1-1 1h-2.768a1 1 0 0 1-1-1V5a1 1 0 0 1 1-1h2.768a1 1 0 0 1 1 1zm-5.616 0a1 1 0 0 1-1 1H5a1 1 0 0 1-1-1V5a1 1 0 0 1 1-1h2.768a1 1 0 0 1 1 1zM20 13.384a1 1 0 0 1-1 1h-2.768a1 1 0 0 1-1-1v-2.768a1 1 0 0 1 1-1H19a1 1 0 0 1 1 1z"/><path fill="#71717A" d="M14.384 13.384a1 1 0 0 1-1 1h-2.768a1 1 0 0 1-1-1v-2.768a1 1 0 0 1 1-1h2.768a1 1 0 0 1 1 1zm0 5.616a1 1 0 0 1-1 1h-2.768a1 1 0 0 1-1-1v-2.768a1 1 0 0 1 1-1h2.768a1 1 0 0 1 1 1zM20 19a1 1 0 0 1-1 1h-2.768a1 1 0 0 1-1-1v-2.768a1 1 0 0 1 1-1H19a1 1 0 0 1 1 1zM8.768 19a1 1 0 0 1-1 1H5a1 1 0 0 1-1-1v-2.768a1 1 0 0 1 1-1h2.768a1 1 0 0 1 1 1z"/></svg>
