<svg xmlns="http://www.w3.org/2000/svg" fill="none" height="24" width="24" viewBox="0 0 24 24"><path fill="#F87171" d="M9.571 20.143H4.43a.429.429 0 0 0 0 .857h5.14a.429.429 0 0 0 0-.857"/><path fill="#FBBF24" d="M9.571 18.429H7.857a.429.429 0 0 0 0 .857h1.714a.429.429 0 1 0 0-.857"/><path fill="#2DD4BF" d="M6.143 18.429H4.429a.429.429 0 0 0 0 .857h1.714a.429.429 0 1 0 0-.857"/><path fill="#C084FC" d="M9.571 16.714H4.43a.429.429 0 0 0 0 .857h5.14a.429.429 0 0 0 0-.857"/><path fill="#FBBF24" d="M14.714 15H7a.429.429 0 0 0 0 .857h7.714a.429.429 0 1 0 0-.857"/><path fill="#C084FC" d="M5.286 15h-.857a.429.429 0 0 0 0 .857h.857a.429.429 0 1 0 0-.857m12-1.714h-2.572a.429.429 0 1 0 0 .857h2.572a.429.429 0 0 0 0-.857"/><path fill="#F87171" d="M13 13.286H9.571a.429.429 0 1 0 0 .857H13a.429.429 0 0 0 0-.857"/><path fill="#2DD4BF" d="M7.857 13.286H4.43a.429.429 0 1 0 0 .857h3.428a.429.429 0 0 0 0-.857m10.285-1.715h-6.857a.429.429 0 0 0 0 .858h6.857a.429.429 0 0 0 0-.858"/><path fill="#FBBF24" d="M9.571 11.571H7a.429.429 0 0 0 0 .858h2.571a.429.429 0 0 0 0-.858"/><path fill="#F87171" d="M5.286 11.571h-.857a.429.429 0 0 0 0 .858h.857a.429.429 0 0 0 0-.858"/><path fill="#FBBF24" d="M19 9.857h-4.286a.429.429 0 0 0 0 .857H19a.429.429 0 0 0 0-.857"/><path fill="#C084FC" d="M7.857 9.857H4.43a.429.429 0 0 0 0 .857h3.428a.429.429 0 0 0 0-.857"/><path fill="#F87171" d="M19 8.143h-4.286a.429.429 0 1 0 0 .857H19a.429.429 0 1 0 0-.857"/><path fill="#FBBF24" d="M7.857 8.143H4.43a.429.429 0 0 0 0 .857h3.428a.429.429 0 1 0 0-.857"/><path fill="#2DD4BF" d="M18.143 6.429h-.857a.429.429 0 1 0 0 .857h.857a.429.429 0 0 0 0-.857"/><path fill="#C084FC" d="M15.571 6.429h-3.428a.429.429 0 1 0 0 .857h3.428a.429.429 0 1 0 0-.857"/><path fill="#2DD4BF" d="M10.429 6.429h-6a.429.429 0 0 0 0 .857h6a.429.429 0 0 0 0-.857"/><path fill="#FBBF24" d="M17.286 4.714H8.714a.429.429 0 1 0 0 .857h8.572a.429.429 0 1 0 0-.857"/><path fill="#F87171" d="M7 4.714H4.429a.429.429 0 1 0 0 .857H7a.429.429 0 0 0 0-.857"/><path fill="#2DD4BF" d="M14.714 3H4.43a.429.429 0 0 0 0 .857h10.285a.429.429 0 1 0 0-.857"/></svg>
