<svg xmlns="http://www.w3.org/2000/svg" fill="none" height="24" width="24" viewBox="0 0 24 24"><path fill="#F87171" fill-rule="evenodd" d="M10.405 7.748a1.5 1.5 0 0 1-.549 2.05l-6.062 3.5a1.5 1.5 0 0 1-1.5-2.599l6.062-3.5a1.5 1.5 0 0 1 2.049.55" clip-rule="evenodd"/><path fill="#2563EB" fill-rule="evenodd" d="M1.745 11.252a1.5 1.5 0 0 1 2.049-.55l6.062 3.5a1.5 1.5 0 0 1-1.5 2.599l-6.062-3.5a1.5 1.5 0 0 1-.55-2.05" clip-rule="evenodd"/><path fill="#F59E0B" fill-rule="evenodd" d="M22.255 11.252a1.5 1.5 0 0 0-2.049-.55l-6.062 3.5a1.5 1.5 0 0 0 1.5 2.599l6.062-3.5a1.5 1.5 0 0 0 .55-2.05" clip-rule="evenodd"/><path fill="#2DD4BF" fill-rule="evenodd" d="M13.595 7.748a1.5 1.5 0 0 0 .549 2.05l6.062 3.5a1.5 1.5 0 0 0 1.5-2.599l-6.062-3.5a1.5 1.5 0 0 0-2.049.55" clip-rule="evenodd"/></svg>
