<svg xmlns="http://www.w3.org/2000/svg" fill="none" height="24" width="24" viewBox="0 0 24 24"><path fill="#F87171" fill-rule="evenodd" d="M6.073 12.597c.704-.407.705-1.723.003-2.94C5.373 8.44 4.233 7.784 3.529 8.19s-.705 1.722-.003 2.94c.703 1.216 1.843 1.873 2.547 1.467m.004 2.605c.703 1.217.702 2.533-.002 2.94-.704.406-1.845-.25-2.547-1.468s-.702-2.533.002-2.94c.704-.405 1.845.251 2.547 1.468m4.798 2.774c.703 1.217.701 2.533-.003 2.94-.704.406-1.844-.251-2.547-1.468-.702-1.217-.7-2.533.003-2.94.704-.406 1.844.251 2.547 1.468m-.002-5.545c.703 1.217.702 2.533-.002 2.94-.704.406-1.845-.251-2.547-1.468s-.702-2.533.002-2.94c.705-.406 1.845.251 2.547 1.468" clip-rule="evenodd"/><path fill="#A855F7" fill-rule="evenodd" d="M20.471 11.132c.703-1.217.701-2.533-.003-2.94-.704-.406-1.844.251-2.546 1.468-.703 1.217-.702 2.533.002 2.94.704.406 1.845-.25 2.547-1.468m0 2.605c.704.406.705 1.722.003 2.939-.703 1.217-1.843 1.874-2.547 1.467-.704-.406-.705-1.722-.003-2.94.703-1.216 1.843-1.873 2.547-1.466m-4.796 2.769c.703.406.705 1.722.002 2.94-.702 1.216-1.843 1.873-2.547 1.466-.704-.406-.705-1.722-.002-2.939.702-1.217 1.842-1.874 2.547-1.467m-.003-5.544c.704.407.705 1.723.002 2.94-.702 1.216-1.842 1.873-2.546 1.467-.704-.407-.706-1.723-.003-2.94s1.843-1.873 2.547-1.467" clip-rule="evenodd"/><path fill="#F59E0B" fill-rule="evenodd" d="M14.542 3.472c0 .813-1.14 1.472-2.544 1.472s-2.545-.66-2.545-1.472c0-.813 1.14-1.472 2.545-1.472s2.544.659 2.544 1.472M9.745 6.238c0 .813-1.139 1.472-2.544 1.472s-2.544-.659-2.544-1.472S5.796 4.766 7.2 4.766s2.544.66 2.544 1.472M16.8 7.71c1.405 0 2.544-.659 2.544-1.472s-1.14-1.472-2.544-1.472-2.545.66-2.545 1.472c0 .813 1.14 1.472 2.545 1.472m-2.259 1.3c0 .814-1.14 1.473-2.544 1.473s-2.545-.66-2.545-1.472c0-.813 1.14-1.472 2.545-1.472s2.544.659 2.544 1.472" clip-rule="evenodd"/></svg>
