<svg xmlns="http://www.w3.org/2000/svg" fill="none" height="24" width="24" viewBox="0 0 24 24"><path stroke="#60A5FA" stroke-linejoin="round" stroke-width="2" d="M13.425 2.5a2.346 2.346 0 0 1 2.346 2.346v.504h3.354a.95.95 0 0 1 .95.95v3.324l-1.454.001a2.346 2.346 0 0 0-2.341 2.192l-.005.154v.058c0 1.244.968 2.262 2.192 2.341l.154.005 1.453-.001.001 3.329a.95.95 0 0 1-.95.95l-3.354-.001v.502a2.346 2.346 0 1 1-4.692 0v-.502H7.725a.95.95 0 0 1-.95-.95l-.001-3.355h-.503a2.346 2.346 0 0 1 0-4.692h.503L6.775 6.3a.95.95 0 0 1 .95-.95h3.354v-.504A2.346 2.346 0 0 1 13.425 2.5Z"/></svg>
