<svg xmlns="http://www.w3.org/2000/svg" fill="none" height="24" width="24" viewBox="0 0 24 24"><path fill="#14B8A6" fill-rule="evenodd" d="M14.622 21.322a11.6 11.6 0 0 1-1.999.178 12.5 12.5 0 0 1-2.179-.178c-1.136-.198-2.092-1.086-2.092-2.269v-4.156c0-1.217.93-2.217 2.092-2.217h4.178c1.418 0 2.613-1.271 2.613-2.712V7.974h1.438c1.216 0 1.926.92 2.223 2.213.401 1.735.384 2.773 0 4.435-.332 1.45-1.398 2.212-2.613 2.212h-5.752v.555h4.183v1.664c0 1.26-.322 1.942-2.092 2.269m-.176-2.837c-.532 0-.963.45-.963 1.005s.43 1.005.963 1.005.963-.45.963-1.005-.43-1.005-.963-1.005" clip-rule="evenodd"/><path fill="#14B8A6" fill-rule="evenodd" d="M9.378 2.678a11.6 11.6 0 0 1 1.999-.178c.715-.003 1.46.053 2.179.178 1.136.198 2.092 1.086 2.092 2.269v4.156c0 1.217-.93 2.217-2.092 2.217H9.378c-1.418 0-2.613 1.271-2.613 2.712v1.994H5.327c-1.216 0-1.926-.92-2.223-2.213-.401-1.735-.384-2.773 0-4.435.332-1.45 1.397-2.213 2.613-2.213h5.752v-.554H7.286V4.947c0-1.26.322-1.942 2.092-2.269m.176 2.838c.532 0 .963-.45.963-1.005s-.43-1.006-.963-1.006-.964.45-.964 1.006c0 .555.432 1.005.964 1.005" clip-rule="evenodd"/></svg>
