<svg xmlns="http://www.w3.org/2000/svg" fill="none" height="24" width="24" viewBox="0 0 24 24"><path fill="#14B8A6" d="M12 14.7c.729 0 1.35-.27 1.899-.801.531-.549.801-1.17.801-1.899s-.27-1.35-.801-1.899C13.35 9.57 12.729 9.3 12 9.3s-1.35.27-1.899.801C9.57 10.65 9.3 11.271 9.3 12s.27 1.35.801 1.899c.549.531 1.17.801 1.899.801M12 3c2.475 0 4.59.9 6.345 2.655S21 9.525 21 12v1.305c0 .9-.315 1.665-.9 2.295-.63.603-1.35.9-2.25.9-1.08 0-1.971-.45-2.646-1.35-.9.9-1.962 1.35-3.204 1.35-1.233 0-2.295-.45-3.186-1.314C7.95 14.295 7.5 13.242 7.5 12c0-1.233.45-2.295 1.314-3.186C9.705 7.95 10.767 7.5 12 7.5c1.242 0 2.295.45 3.186 1.314.864.891 1.314 1.953 1.314 3.186v1.305c0 .369.144.693.414.972s.585.423.936.423c.378 0 .693-.144.963-.423s.387-.603.387-.972V12c0-1.971-.693-3.663-2.115-5.085S13.971 4.8 12 4.8s-3.663.693-5.085 2.115S4.8 10.029 4.8 12s.693 3.663 2.115 5.085S10.029 19.2 12 19.2h4.5V21H12c-2.475 0-4.59-.9-6.345-2.655S3 14.475 3 12s.9-4.59 2.655-6.345S9.525 3 12 3"/></svg>
