<svg xmlns="http://www.w3.org/2000/svg" fill="none" height="24" width="24" viewBox="0 0 24 24"><path fill="#2563EB" d="M12 13.677a1.677 1.677 0 1 0 0-3.354 1.677 1.677 0 0 0 0 3.354"/><path stroke="#2563EB" d="M12 15.436c4.97 0 9-1.538 9-3.436s-4.03-3.436-9-3.436S3 10.102 3 12s4.03 3.436 9 3.436Z"/><path stroke="#2563EB" d="M9.024 13.718c2.485 4.305 5.832 7.025 7.476 6.076s.961-5.208-1.524-9.512S9.144 3.257 7.5 4.206s-.961 5.208 1.524 9.512Z"/><path stroke="#2563EB" d="M9.024 10.282c-2.485 4.304-3.168 8.563-1.524 9.512 1.644.95 4.99-1.771 7.476-6.076s3.168-8.563 1.524-9.512c-1.644-.95-4.99 1.771-7.476 6.076Z"/></svg>
