<svg xmlns="http://www.w3.org/2000/svg" fill="none" height="24" width="24" viewBox="0 0 24 24"><path fill="#F87171" d="M20.843 3.902a3.4 3.4 0 0 0-.748-.746c-.887-.645-2.153-.645-4.686-.645H8.587c-2.532 0-3.799 0-4.686.645a3.3 3.3 0 0 0-.745.746c-.646.887-.646 2.153-.646 4.69v6.817c0 2.533 0 3.798.646 4.686.208.287.46.54.745.749.887.645 2.153.645 4.686.645h6.822c2.532 0 3.798 0 4.685-.646.287-.21.54-.462.75-.748.645-.887.645-2.153.645-4.686V8.591c0-2.536 0-3.802-.646-4.69M11.3 15.419c0 .594 0 .894-.097 1.128-.13.313-.378.561-.69.69-.235.097-.531.097-1.128.097-.594 0-.894 0-1.128-.096a1.28 1.28 0 0 1-.69-.69c-.097-.235-.097-.535-.097-1.128V9.16c0-.717 0-1.076.138-1.348.123-.24.319-.436.559-.56.272-.137.631-.137 1.346-.137H11.3zm4.071-3.723a2.253 2.253 0 1 1 .004 0z"/></svg>
