<svg xmlns="http://www.w3.org/2000/svg" fill="none" height="24" width="24" viewBox="0 0 24 24"><path fill="#F87171" d="M8.587 2.51c-2.532 0-3.799 0-4.686.646a3.3 3.3 0 0 0-.744.746c-.646.887-.646 2.153-.646 4.689v6.818c0 2.532 0 3.797.645 4.685.208.287.46.54.745.75.887.645 2.154.645 4.686.645h6.822c2.532 0 3.797 0 4.685-.646a3.5 3.5 0 0 0 .75-.749c.645-.886.645-2.152.645-4.685V8.59c0-2.536 0-3.802-.646-4.69a3.4 3.4 0 0 0-.748-.745c-.887-.645-2.153-.645-4.686-.645zm.38 1.058h6.062c2.25 0 3.376 0 4.163.573.255.185.48.409.666.663.573.788.573 1.913.574 4.167v6.058c0 2.25 0 3.375-.574 4.163a3.1 3.1 0 0 1-.666.665c-.788.574-1.913.575-4.163.575H8.967c-2.25 0-3.375 0-4.163-.575a3 3 0 0 1-.663-.665c-.573-.788-.573-1.913-.573-4.163V8.97c0-2.254 0-3.38.573-4.167.184-.255.408-.478.663-.663.788-.573 1.913-.573 4.163-.573"/><path fill="#F87171" d="M9.513 7.114c-.714 0-1.073 0-1.345.138-.24.123-.436.319-.56.56-.138.272-.138.63-.138 1.348v6.259c0 .594 0 .894.097 1.128.13.313.378.561.69.69.234.097.535.097 1.128.097.598 0 .894 0 1.129-.096.312-.13.56-.378.69-.691.096-.234.096-.534.096-1.128V7.114zm5.86.075a2.253 2.253 0 0 0 0 4.506h.002a2.251 2.251 0 0 0 1.59-3.846 2.25 2.25 0 0 0-1.593-.66"/></svg>
