<svg xmlns="http://www.w3.org/2000/svg" fill="none" height="24" width="24" viewBox="0 0 24 24"><path fill="#64748B" fill-rule="evenodd" d="M12.333 3a1 1 0 0 0-1 1v2q0 .114.025.222H5a2 2 0 0 0-2 2v10a2 2 0 0 0 2 2h14a2 2 0 0 0 2-2v-10a2 2 0 0 0-2-2h-5.691A1 1 0 0 0 13.333 6V4a1 1 0 0 0-1-1M11 11.111a3 3 0 1 1-6 0 3 3 0 0 1 6 0m5 3a3 3 0 1 0 0-6 3 3 0 0 0 0 6m-8 3.111a1 1 0 0 1 1-1h7a1 1 0 1 1 0 2H9a1 1 0 0 1-1-1m0-5.11a1 1 0 1 0 0-2 1 1 0 0 0 0 2m9-1a1 1 0 1 1-2 0 1 1 0 0 1 2 0" clip-rule="evenodd"/></svg>
