<svg xmlns="http://www.w3.org/2000/svg" fill="none" height="24" width="24" viewBox="0 0 24 24"><path fill="#71717A" d="M9.926 5.68a.51.51 0 0 1-.239.68l-.046.023C7.07 7.3 5.238 9.676 5.238 12.46c0 .285-.23.516-.515.516H2.855a.51.51 0 0 1-.511-.512c0-3.95 2.566-7.317 6.187-8.656.242-.09.516.02.63.261zm-7.582 9.27a1 1 0 0 1 1-1h.894a1 1 0 0 1 1 1v5.788a1 1 0 0 1-1 1h-.894a1 1 0 0 1-1-1zm19.312-2.485a.51.51 0 0 1-.511.512h-1.872a.51.51 0 0 1-.511-.512c0-2.79-1.832-5.164-4.403-6.082a.53.53 0 0 1-.289-.262.52.52 0 0 1-.026-.358q.008-.033.02-.065l.015-.036.757-1.596a.503.503 0 0 1 .629-.257c3.625 1.34 6.191 4.707 6.191 8.656m-2.894 2.484a1 1 0 0 1 1-1h.894a1 1 0 0 1 1 1v5.79a1 1 0 0 1-1 1h-.894a1 1 0 0 1-1-1z"/><path fill="#FBBF24" d="M13.84 2.39c.16.024.3.118.375.262a.53.53 0 0 1 .015.465l-.14.29-1.074 2.273a.51.51 0 0 1-.493.289 12 12 0 0 0-1.046 0 .51.51 0 0 1-.493-.29L9.91 3.407l-.14-.289a.516.516 0 0 1 .39-.726 13.5 13.5 0 0 1 3.68 0m3.953 10.075v9.27h-2.895v-9.27c0-1.54-1.3-2.785-2.898-2.785s-2.898 1.246-2.898 2.785v9.27H6.207v-9.27C6.207 9.393 8.801 6.9 12 6.9s5.793 2.493 5.793 5.567"/></svg>
