<svg xmlns="http://www.w3.org/2000/svg" fill="none" height="24" width="24" viewBox="0 0 25 24"><mask id="a" width="20" height="17" x="2" y="3" maskUnits="userSpaceOnUse" style="mask-type:alpha"><path fill="#D9D9D9" d="M17.993 3.14H6.78L2.84 9.377l9.578 9.878 9.02-9.878z"/></mask><g stroke="#F87171" stroke-linecap="round" stroke-linejoin="round" stroke-width="2" mask="url(#a)"><path d="M12.654 2.162 8.336 9.35l4.323 11.256"/><path d="m11.441 2.17 4.33 7.193-4.312 11.265"/></g><path stroke="#F87171" stroke-linejoin="round" stroke-width="2" d="M4.107 9.35h16.125"/><path fill="#F87171" fill-rule="evenodd" d="M6.48 3.584a1 1 0 0 1 .837-.453H17.32a1 1 0 0 1 .87.505l2.976 5.231a1 1 0 0 1-.082 1.112l-7.857 10.024a1 1 0 0 1-1.549.031L3.142 10.01a1 1 0 0 1-.076-1.195zm1.379 1.547-2.71 4.152 7.258 8.523 6.688-8.533-2.357-4.142z" clip-rule="evenodd"/></svg>
