<svg xmlns="http://www.w3.org/2000/svg" fill="none" height="24" width="24" viewBox="0 0 25 24"><path fill="#EA580C" fill-rule="evenodd" d="M12.58 2.136a.287.287 0 0 0-.488 0l-.526.85-.232.022-.683-.73a.287.287 0 0 0-.478.096l-.35.935q-.113.032-.224.067l-.812-.583a.287.287 0 0 0-.45.187l-.162.989-.204.11-.913-.417a.287.287 0 0 0-.406.272l.036 1.005-.175.144-.98-.231a.287.287 0 0 0-.345.345l.231.98-.144.175-1.005-.036a.287.287 0 0 0-.271.406l.416.913-.11.203L3.317 8a.287.287 0 0 0-.187.45l.584.813-.068.223-.935.35a.287.287 0 0 0-.095.479l.73.682-.023.233-.85.526a.287.287 0 0 0 0 .488l.85.526q.01.117.023.233l-.73.682a.287.287 0 0 0 .095.479l.935.35.068.223-.584.812a.287.287 0 0 0 .187.451l.99.162q.053.102.109.203L4 17.278a.287.287 0 0 0 .271.406l1.006-.036q.07.088.143.174l-.23.981a.287.287 0 0 0 .344.345l.981-.23q.085.072.174.142l-.036 1.006a.287.287 0 0 0 .406.272l.914-.417q.1.056.203.11l.161.99a.287.287 0 0 0 .451.186l.813-.584q.11.035.223.068l.35.935a.287.287 0 0 0 .478.095l.683-.73q.115.015.232.023l.526.85a.287.287 0 0 0 .489 0l.526-.85q.117-.01.232-.023l.682.73a.287.287 0 0 0 .479-.095l.35-.935q.113-.032.223-.068l.813.584a.287.287 0 0 0 .45-.187l.162-.99.203-.109.913.417a.287.287 0 0 0 .406-.272l-.035-1.006q.087-.07.174-.143l.98.231a.287.287 0 0 0 .346-.345l-.231-.98.143-.175 1.006.036a.287.287 0 0 0 .271-.406l-.416-.913.109-.203.99-.162a.287.287 0 0 0 .187-.45l-.584-.813.067-.223.935-.35a.287.287 0 0 0 .096-.479l-.73-.682q.013-.116.023-.233l.85-.526a.287.287 0 0 0 0-.488l-.85-.526-.023-.233.73-.682a.287.287 0 0 0-.096-.479l-.934-.35-.068-.223.584-.812A.287.287 0 0 0 21.357 8l-.99-.162-.11-.203.417-.913a.287.287 0 0 0-.271-.406l-1.006.036-.143-.174.23-.981a.287.287 0 0 0-.344-.345l-.981.23-.174-.142.035-1.006a.287.287 0 0 0-.405-.272l-.914.417-.203-.11-.162-.99a.287.287 0 0 0-.45-.186l-.813.584-.223-.068-.35-.935a.287.287 0 0 0-.479-.095l-.682.73-.232-.023zm-.257 1.62a.59.59 0 0 1 .578.596.595.595 0 1 1-.578-.595m1.363.98A7.32 7.32 0 0 1 18.7 8.309l-.702 1.585a.547.547 0 0 0 .275.717l1.352.6q.062.634.015 1.27h-.752c-.075 0-.106.05-.106.123v.344c0 .812-.457.99-.859 1.034-.383.044-.806-.161-.86-.394-.22-1.24-.583-1.526-1.152-1.975l-.041-.033c.736-.467 1.502-1.158 1.502-2.08 0-.998-.683-1.625-1.148-1.934-.655-.43-1.379-.516-1.574-.516H6.88a7.32 7.32 0 0 1 4.098-2.312l.916.96a.54.54 0 0 0 .766.018zm-8.46 4.407a.595.595 0 1 1-.034 1.19.595.595 0 0 1 .034-1.19m14.192.026a.595.595 0 1 1-.035 1.19.595.595 0 0 1 .035-1.19m-13.07.096h1.037v4.678H5.291a7.3 7.3 0 0 1-.237-2.797l1.282-.57a.54.54 0 0 0 .276-.716zm4.33.05h2.47c.128 0 .901.147.901.727 0 .48-.593.653-1.081.653h-2.293zm0 3.36h1.892c.172 0 .924.05 1.164 1.011.026.104.064.291.107.503.078.389.174.861.247 1.06.113.345.57 1.034 1.058 1.034h3.089q-.31.416-.677.785l-1.258-.27a.544.544 0 0 0-.645.417l-.298 1.394a7.32 7.32 0 0 1-6.108-.03l-.298-1.392a.54.54 0 0 0-.643-.418l-1.23.264a7 7 0 0 1-.636-.75h5.984c.067 0 .113-.011.113-.074v-2.117c0-.061-.046-.075-.113-.075h-1.75zm-2.763 4.848a.595.595 0 1 1-.034 1.19.595.595 0 0 1 .034-1.19m8.814.027a.596.596 0 1 1-.035 1.19.596.596 0 0 1 .035-1.19" clip-rule="evenodd"/></svg>
