<svg xmlns="http://www.w3.org/2000/svg" fill="none" height="24" width="24" viewBox="0 0 24 24"><path fill="#7F1D1D" fill-rule="evenodd" d="M6.017 9.698c.157.216 1.48.625 3.456 1.05 1.974.378 4.028 1.873 5.626 1.412 1.08-.312 2.252-3.095 2.252-3.509V8.61c0-.289-.216-.52-.584-.713-1.506-.77-1.791-1.053-2.35-.9-2.899.8-8.018.392-8.4 2.702m0 5.65c.157.22 1.48.624 3.456 1.05 2.206.402 4.125 1.714 5.723 1.252 1.08-.312 2.155-2.935 2.155-3.349v-.04c0-.288-.216-.52-.584-.713-1.149-.61-2.667-1.284-3.225-1.13-2.904.798-6.786.974-7.525 2.93" clip-rule="evenodd"/><path fill="#F87171" fill-rule="evenodd" d="M15.192 4.092C12.522 4.864 8.286 5.3 6.004 5.3v4.358q0 .024.016.04c1.558 0 6.365-.508 9.266-1.306a11 11 0 0 0 1.485-.493c.354-.16.584-.328.584-.503V3c-.004.414-1.083.78-2.163 1.092m0 5.652c-1.598.46-3.755.803-5.72 1.004-1.318.135-2.55.205-3.468.205v4.355q0 .024.016.04c1.558 0 6.365-.509 9.266-1.306q.76-.193 1.485-.493c.354-.16.584-.327.584-.502V8.65c-.004.414-1.083.78-2.163 1.093m0 5.656c-1.598.46-3.755.803-5.72 1.004-1.32.135-2.554.205-3.471.205V21c1.54 0 6.373-.505 9.282-1.306 1.072-.296 2.068-.632 2.068-.996v-4.396c0 .418-1.079.78-2.159 1.097" clip-rule="evenodd"/></svg>
