<svg xmlns="http://www.w3.org/2000/svg" fill="none" height="24" width="24" viewBox="0 0 24 24"><path fill="#A855F7" fill-rule="evenodd" d="M12.498 20.953c2.05-7.377 1.99-7.41 3.472-12.669l.356.207c.194.112.352.02.352-.204V5.78c.393-1.386.701-2.456.79-2.779h1.606l2.667 2.487L19.99 7.01l1.325 1.44-8.73 12.502c-.043.07-.102.055-.089 0z" clip-rule="evenodd"/><path fill="#A855F7" fill-rule="evenodd" d="M13.451 5.055c.08 0 .143.043.143.099v1.285c0 .053-.059.098-.138.098H11.3c-.079 0-.145-.044-.145-.1V5.153c0-.054.066-.097.145-.097h2.156zm2.661-1.424L13.74 5.009a.27.27 0 0 1 .044.145v1.285a.25.25 0 0 1-.072.175l2.393 1.39c.158.096.296.019.296-.17v-4.03c0-.19-.138-.267-.296-.172zm-5.15 2.808V5.154q.001-.08.043-.145L8.633 3.63c-.163-.094-.297-.017-.297.173v4.028c0 .19.134.263.297.17l2.396-1.39a.28.28 0 0 1-.068-.178z" clip-rule="evenodd"/><path fill="#A855F7" fill-rule="evenodd" d="M12.154 20.953h.088c-2.05-7.377-1.99-7.41-3.471-12.669l-.356.207c-.194.112-.353.02-.353-.204V5.78C7.667 4.394 7.358 3.323 7.265 3H5.663L3 5.487 4.75 7.01 3.425 8.451l8.728 12.5z" clip-rule="evenodd"/><path fill="#A855F7" d="M12.305 9.22a.65.65 0 0 0 .647-.651.65.65 0 0 0-.647-.652.65.65 0 0 0-.647.652c0 .36.29.65.647.65m0 3.875a.65.65 0 0 0 .647-.651.65.65 0 0 0-.647-.652.65.65 0 0 0-.647.652c0 .36.29.651.647.651m0 3.875a.65.65 0 0 0 .647-.652.65.65 0 0 0-.647-.651.65.65 0 0 0-.647.651c0 .36.29.651.647.651"/></svg>
