<svg xmlns="http://www.w3.org/2000/svg" fill="none" height="24" width="24" viewBox="0 0 25 24"><mask id="a" width="17" height="20" x="4.141" y="2" fill="#000" maskUnits="userSpaceOnUse"><path fill="#fff" d="M4.141 2h17v20h-17z"/><path d="M10.915 19.877A3.83 3.83 0 0 1 6.8 18.352a3.55 3.55 0 0 1-.606-2.682q.042-.23.116-.45l.09-.278.248.181c.57.42 1.208.739 1.887.944l.179.054-.017.18c-.021.254.048.508.195.716a1.15 1.15 0 0 0 1.24.46q.157-.043.295-.13l4.825-3.075a1 1 0 0 0 .453-.672 1.07 1.07 0 0 0-.182-.809 1.15 1.15 0 0 0-1.24-.46 1 1 0 0 0-.296.13l-1.84 1.174a3.5 3.5 0 0 1-.981.43 3.83 3.83 0 0 1-4.114-1.525 3.55 3.55 0 0 1-.606-2.682 3.33 3.33 0 0 1 1.505-2.229l4.826-3.075a3.5 3.5 0 0 1 .98-.43 3.83 3.83 0 0 1 4.113 1.524 3.55 3.55 0 0 1 .607 2.682 3.4 3.4 0 0 1-.116.45l-.09.278-.248-.181a6.2 6.2 0 0 0-1.887-.943l-.18-.055.018-.179a1.08 1.08 0 0 0-.195-.717 1.155 1.155 0 0 0-1.24-.46 1 1 0 0 0-.295.13L9.419 9.728a1 1 0 0 0-.453.672 1.07 1.07 0 0 0 .182.809 1.155 1.155 0 0 0 1.24.46q.157-.043.296-.13l1.84-1.173a3.5 3.5 0 0 1 .98-.43 3.83 3.83 0 0 1 4.114 1.524 3.55 3.55 0 0 1 .606 2.682 3.33 3.33 0 0 1-1.504 2.23l-4.825 3.074a3.5 3.5 0 0 1-.98.43"/></mask><path fill="#EA580C" d="m8.618 19.761.695-1.875zm-1.817-1.409 1.644-1.14-.016-.023zm-.606-2.682-1.967-.36-.002.01zm.116-.45 1.898.628.002-.007zm.09-.278 1.184-1.613a2 2 0 0 0-3.084.99zm.248.181 1.184-1.611-.001-.001zm1.887.944.58-1.914h-.002zm.179.054 1.991.183a2 2 0 0 0-1.41-2.097zm-.017.18-1.991-.184-.001.013zm.195.716 1.644-1.14-.012-.016zm1.24.46.503 1.935.01-.002zm.295-.13 1.071 1.69.004-.003zm4.825-3.075-1.065-1.693-.01.006zm.453-.672 1.969.355v-.007zm-.182-.809-1.644 1.14.015.022zm-1.24-.46-.502-1.935-.012.003zm-.296.13-1.07-1.69-.005.003zm-1.84 1.174 1.072 1.688.002-.002zm-.981.43L11.67 16l.013-.004zM7.053 12.54l1.644-1.14-.016-.023zm-.606-2.682L4.48 9.504v.004zm1.505-2.229 1.064 1.694.011-.007zm4.826-3.075-1.074-1.687h-.001zm.98-.43-.503-1.936-.014.003zm4.113 1.524-1.643 1.14.016.023zm.607 2.682 1.966.364.003-.014zm-.116.45-1.899-.627-.002.005zm-.09.278-1.183 1.613a2 2 0 0 0 3.083-.99zm-.248-.181-1.185 1.611.003.002zm-1.887-.943-.58 1.914h.002zm-.18-.055-1.99-.185a2 2 0 0 0 1.41 2.1zm.018-.179 1.991.185.001-.015zm-.195-.717-1.644 1.14.01.014zm-1.24-.46-.503-1.935-.01.002zm-.295.13-1.071-1.69-.004.003zM9.419 9.728l1.065 1.693.01-.006zm-.453.672-1.969-.354v.004zm.182.809 1.644-1.14-.015-.021zm1.24.46.502 1.935.013-.003zm.296-.13 1.069 1.69.005-.003zm1.84-1.173L11.45 8.679zm.98-.43L13.003 8l-.013.003zm4.114 1.524-1.643 1.14.016.023zm.606 2.682 1.969.354v-.004zm-1.504 2.23-1.065-1.693-.01.006zm-4.825 3.074 1.074 1.687zm-1.483-1.505a1.83 1.83 0 0 1-1.099-.055l-1.39 3.75c1.12.415 2.34.477 3.495.176zm-1.099-.055a1.83 1.83 0 0 1-.868-.674l-3.287 2.28c.68.98 1.646 1.73 2.765 2.144zm-.884-.697a1.6 1.6 0 0 1-.25-.558l-3.902.882c.163.72.468 1.4.897 2.001zm-.25-.558c-.046-.2-.05-.409-.014-.611l-3.939-.7a5.6 5.6 0 0 0 .051 2.193zm-.016-.6q.015-.094.046-.183l-3.797-1.257q-.117.353-.184.718zm.048-.19.091-.277-3.801-1.244-.091.277zm-2.993.713.248.182 2.366-3.225-.247-.182zm.246.18a8.2 8.2 0 0 0 2.493 1.247l1.157-3.829a4.2 4.2 0 0 1-1.28-.64zm2.49 1.247.18.054 1.161-3.828-.179-.054zm-1.23-2.043-.017.18 3.983.365.016-.179zm-.018.192a3.08 3.08 0 0 0 .555 2.043l3.264-2.312a.92.92 0 0 1 .166.61zm.543 2.026c.368.531.89.936 1.496 1.161l1.39-3.75c.163.06.303.168.402.31zm1.496 1.161a3.15 3.15 0 0 0 1.89.095l-1.006-3.87a.85.85 0 0 1 .507.025zm1.901.093c.302-.08.59-.207.853-.374l-2.141-3.378a1 1 0 0 1 .26-.114zm.857-.376 4.825-3.076-2.15-3.373-4.825 3.076zm4.815-3.07c.354-.222.657-.516.89-.861l-3.315-2.238a1 1 0 0 1 .294-.286zm.89-.861c.234-.346.392-.737.467-1.148l-3.937-.71a1 1 0 0 1 .155-.38zm.468-1.155c.07-.402.061-.814-.029-1.212l-3.901.882a.9.9 0 0 1-.01-.366zm-.029-1.212a3.1 3.1 0 0 0-.495-1.106l-3.257 2.323a.9.9 0 0 1-.15-.335zm-.48-1.084a3.16 3.16 0 0 0-1.495-1.16l-1.392 3.75a.84.84 0 0 1-.4-.311zm-1.495-1.16a3.15 3.15 0 0 0-1.89-.096l1.005 3.871a.85.85 0 0 1-.507-.025zm-1.902-.093c-.301.08-.589.206-.852.373l2.14 3.378a1 1 0 0 1-.26.114zm-.857.376-1.84 1.173 2.15 3.373 1.84-1.174zm-1.838 1.172a1.5 1.5 0 0 1-.425.186l1.033 3.864a5.5 5.5 0 0 0 1.537-.674zm-.411.182a1.83 1.83 0 0 1-1.098-.055l-1.39 3.75a5.83 5.83 0 0 0 3.494.177zm-1.098-.055a1.83 1.83 0 0 1-.87-.674L5.41 13.68a5.83 5.83 0 0 0 2.765 2.145zm-.885-.697a1.6 1.6 0 0 1-.25-.558l-3.902.882a5.6 5.6 0 0 0 .897 2.002zm-.25-.558c-.046-.2-.05-.408-.015-.611l-3.938-.7a5.6 5.6 0 0 0 .051 2.193zm-.015-.607a1.3 1.3 0 0 1 .206-.508L5.307 7.465a5.3 5.3 0 0 0-.828 2.039zm.206-.508c.104-.153.238-.283.394-.381L6.89 5.935a5.3 5.3 0 0 0-1.582 1.53zm.405-.388 4.825-3.075-2.15-3.374-4.824 3.075zm4.824-3.075a1.5 1.5 0 0 1 .424-.186L13.24 2.191a5.5 5.5 0 0 0-1.537.676zm.41-.182a1.83 1.83 0 0 1 1.098.055l1.39-3.75a5.83 5.83 0 0 0-3.494-.176zm1.098.055c.352.13.655.366.87.674l3.286-2.28a5.83 5.83 0 0 0-2.765-2.144zm.885.697c.12.167.205.357.25.558l3.902-.882a5.6 5.6 0 0 0-.897-2.002zm.25.558c.046.2.05.409.014.611l3.939.7a5.6 5.6 0 0 0-.051-2.193zm.017.598a1.4 1.4 0 0 1-.048.186l3.798 1.255a5.4 5.4 0 0 0 .183-.714zm-.05.191-.09.278 3.801 1.244.09-.277zm2.992-.713-.247-.181-2.364 3.226.247.181zm-.244-.18a8.2 8.2 0 0 0-2.494-1.246l-1.156 3.83c.46.138.893.355 1.28.64zM16.718 6.02l-.18-.055-1.16 3.828.18.055zm1.231 2.044.017-.179-3.983-.37-.017.18zm.018-.194a3.08 3.08 0 0 0-.553-2.04l-3.268 2.307a.92.92 0 0 1-.164-.607zm-.543-2.026a3.16 3.16 0 0 0-1.496-1.161l-1.39 3.75a.85.85 0 0 1-.402-.31zm-1.496-1.161a3.15 3.15 0 0 0-1.89-.095l1.006 3.87a.85.85 0 0 1-.507-.025zm-1.901-.093c-.302.08-.59.206-.853.373l2.141 3.379a1 1 0 0 1-.26.114zm-.857.376L8.344 8.042l2.15 3.373 4.826-3.076zm-4.816 3.07a3 3 0 0 0-.89.862l3.315 2.237a1 1 0 0 1-.295.286zm-.89.862a3 3 0 0 0-.467 1.148l3.937.707a1 1 0 0 1-.155.382zm-.467 1.152a3.1 3.1 0 0 0 .028 1.212l3.902-.88c.027.12.03.246.008.367zm.028 1.212c.09.399.258.775.494 1.107l3.258-2.321q.108.152.15.335zm.48 1.086c.367.53.89.936 1.495 1.16l1.392-3.75c.162.06.301.169.4.311zM9 13.508a3.16 3.16 0 0 0 1.89.097L9.885 9.733a.85.85 0 0 1 .507.025zm1.903.093c.3-.08.587-.206.85-.372l-2.14-3.38a1 1 0 0 1 .26-.113zm.855-.375 1.841-1.174-2.15-3.373-1.84 1.173zm1.84-1.173a1.5 1.5 0 0 1 .422-.185l-1.03-3.865a5.5 5.5 0 0 0-1.54.676zm.41-.182a1.83 1.83 0 0 1 1.098.055l1.39-3.75A5.83 5.83 0 0 0 13.002 8zm1.098.055c.352.13.655.366.869.674l3.286-2.28a5.83 5.83 0 0 0-2.765-2.144zm.885.697c.12.167.204.357.25.558l3.901-.882a5.6 5.6 0 0 0-.897-2.002zm.25.558c.045.2.05.409.014.611l3.938.7a5.6 5.6 0 0 0-.05-2.193zm.015.608a1.3 1.3 0 0 1-.207.508l3.316 2.237a5.3 5.3 0 0 0 .828-2.038zm-.207.508a1.3 1.3 0 0 1-.394.382l2.13 3.386a5.3 5.3 0 0 0 1.58-1.531zm-.403.388L10.82 17.76l2.15 3.374 4.825-3.074zM10.82 17.76q-.197.125-.423.186l1.033 3.864a5.5 5.5 0 0 0 1.538-.676z" mask="url(#a)"/></svg>
