<svg xmlns="http://www.w3.org/2000/svg" fill="none" height="24" width="24" viewBox="0 0 24 24"><path stroke="#EA580C" stroke-linejoin="round" stroke-width="2" d="M16.27 18.708a1 1 0 0 0 .124-.075c.353-.134.732-.236 1.07-.215.304.02.634.131.922.7l.004.008c.05.097.203.364.537.508.443.19.849.028 1.073-.155.182-.15.274-.326.314-.411.049-.103.08-.205.102-.29.084-.327.105-.753.063-1.207-.077-.844-.385-1.96-1.156-3.072.851-3.746-1.494-7.898-5.091-10.072a1 1 0 0 0-1.296 1.482 6.9 6.9 0 0 1 1.491 4.972 41.7 41.7 0 0 1-5.974-5.04 1 1 0 0 0-1.709.806l-.222-.163A1 1 0 0 0 5.07 7.8q.394.668.9 1.254a37.4 37.4 0 0 0 5.179 5.608c-1.286.302-2.858.153-4.502-.613l-.009-.004a7.4 7.4 0 0 1-1.52-.925 1 1 0 0 0-1.464 1.32 11.35 11.35 0 0 0 5.102 4.364 8.44 8.44 0 0 0 7.515-.095Z"/></svg>
