<svg xmlns="http://www.w3.org/2000/svg" fill="none" height="24" width="24" viewBox="0 0 24 24"><path fill="#0EA5E9" fill-rule="evenodd" d="M12 6Q8 6 7 9.976q1.5-1.988 3.5-1.49c.76.188 1.305.737 1.906 1.344.98.99 2.116 2.134 4.594 2.134q4 0 5-3.976-1.5 1.989-3.5 1.49c-.76-.188-1.305-.737-1.906-1.344C15.614 7.144 14.479 6 12 6m-5 5.964q-4 0-5 3.976 1.5-1.987 3.5-1.491c.76.189 1.305.738 1.906 1.345.98.99 2.115 2.134 4.594 2.134q4 0 5-3.976-1.5 1.988-3.5 1.491c-.76-.189-1.305-.738-1.906-1.345-.98-.989-2.116-2.134-4.594-2.134" clip-rule="evenodd"/></svg>
