<svg xmlns="http://www.w3.org/2000/svg" fill="none" height="24" width="24" viewBox="0 0 24 24"><path fill="#64748B" d="M15.97 13.56c.295 1.064-.32 2.17-1.356 2.437l-.55.14a5.8 5.8 0 0 0 .006 1.764l.508.127c1.046.262 1.668 1.379 1.364 2.45l-.176.616c.413.377.884.682 1.396.9l.464-.507a1.835 1.835 0 0 1 2.727 0l.47.513a5 5 0 0 0 1.394-.89l-.186-.67c-.296-1.064.32-2.17 1.356-2.437l.549-.14a5.8 5.8 0 0 0-.006-1.764l-.507-.127c-1.047-.261-1.669-1.379-1.364-2.45l.175-.616a5 5 0 0 0-1.396-.9l-.464.507a1.835 1.835 0 0 1-2.727 0l-.47-.513a5 5 0 0 0-1.394.89zM19 18.464c-.753 0-1.364-.655-1.364-1.464s.61-1.464 1.364-1.464c.753 0 1.364.656 1.364 1.464s-.61 1.464-1.364 1.464"/><path fill="#2563EB" fill-rule="evenodd" d="M3.234 7.318v1.775h3.118V17.5h2.127V9.093h3.118V7.318zm14.751 1.994q.453.333.512.934h1.296c.237-.122.493-.199.756-.227a2.8 2.8 0 0 0-.476-1.373q-.472-.69-1.322-1.08-.845-.387-1.979-.387-1.113 0-1.988.388-.876.387-1.378 1.079-.496.69-.492 1.615-.004 1.13.74 1.795.106.093.22.18c.12-.307.31-.588.564-.817q.42-.38.899-.69a.84.84 0 0 1-.216-.612q0-.328.19-.586.193-.26.556-.403.363-.15.89-.15.776 0 1.228.334m-5.317 5.355q.205-.213.463-.364h-.485q.004.188.022.363" clip-rule="evenodd"/></svg>
