<svg xmlns="http://www.w3.org/2000/svg" xmlns:xlink="http://www.w3.org/1999/xlink" fill="none" height="24" width="24" viewBox="0 0 24 24"><path fill="#E4E4E7" d="M12 6c-3.308 0-6 2.692-6 6s2.692 6 6 6 6-2.692 6-6-2.692-6-6-6m0 9.105a3.105 3.105 0 1 1 0-6.21 3.105 3.105 0 0 1 0 6.21"/><path fill="url(#a)" fill-rule="evenodd" d="M12.537 4.425V1.998C17.81 2.28 22 6.647 22 11.991c0 5.343-4.19 9.709-9.463 9.992v-2.427c3.93-.28 7.043-3.565 7.043-7.565 0-4.001-3.113-7.285-7.043-7.566M6.26 16.952a7.56 7.56 0 0 1-1.833-4.417H2a9.97 9.97 0 0 0 2.543 6.134zm5.187 5.03v-2.426a7.55 7.55 0 0 1-4.419-1.833L5.312 19.44a9.96 9.96 0 0 0 6.134 2.543z" clip-rule="evenodd"/><defs><linearGradient id="a" x1="12.929" x2="3.093" y1="3.404" y2="13.24" gradientUnits="userSpaceOnUse"><stop stop-color="#0096FF"/><stop offset="1" stop-color="#FF1E56"/></linearGradient></defs></svg>
