<svg xmlns="http://www.w3.org/2000/svg" xmlns:xlink="http://www.w3.org/1999/xlink" fill="none" height="24" width="24" viewBox="0 0 24 24"><g clip-path="url(#a)"><path fill="#71717A" d="M12.609 16.736a4.09 4.09 0 1 1 8.182 0 4.09 4.09 0 0 1-8.182 0"/><path fill="#D4D4D8" d="M12.609 7.336a4.09 4.09 0 0 1 8.182 0v3.682a.41.41 0 0 1-.41.41h-7.363a.41.41 0 0 1-.409-.41z"/><path fill="#3F3F46" d="M11.346 16.736a4.09 4.09 0 0 1-8.182 0v-3.681a.41.41 0 0 1 .409-.41h7.363a.41.41 0 0 1 .41.41z"/></g><defs><clipPath id="a"><path fill="#fff" d="M3 3h18v18H3z"/></clipPath></defs></svg>
