<svg xmlns="http://www.w3.org/2000/svg" xmlns:xlink="http://www.w3.org/1999/xlink" fill="none" height="24" width="24" viewBox="0 0 24 24"><mask id="a" width="18" height="18" x="3" y="3" maskUnits="userSpaceOnUse" style="mask-type:luminance"><path fill="#fff" d="M3 3h18v18H3z"/></mask><g mask="url(#a)"><path fill="#1D4ED8" d="M14.448 19.344 19.704 4.8c.072-.252-.072-.432-.324-.432l-4.104.396a.92.92 0 0 0-.648.504L9.804 19.164c-.108.252.036.468.324.468h3.996c.144 0 .252-.108.324-.252z"/><g filter="url(#b)"><path fill="#EBEBEB" d="m13.872 19.38-2.196-6.264L12 12.9l2.232 6.444z"/></g><path fill="#2563EB" d="m4.62 4.368 4.104.396c.252.036.54.252.648.504l4.932 14.112c.036.144-.036.252-.144.252h-4.032c-.288 0-.54-.216-.648-.468L4.296 4.8c-.072-.252.072-.432.324-.432"/></g><defs><filter id="b" width="28.156" height="32.08" x="-1.124" y=".1" color-interpolation-filters="sRGB" filterUnits="userSpaceOnUse"><feFlood flood-opacity="0" result="BackgroundImageFix"/><feBlend in="SourceGraphic" in2="BackgroundImageFix" result="shape"/><feGaussianBlur result="effect1_foregroundBlur_20924_557" stdDeviation="6.4"/></filter></defs></svg>
