<svg xmlns="http://www.w3.org/2000/svg" fill="none" height="24" width="24" viewBox="0 0 24 24"><path fill="#7E22CE" d="m6.3 18.225-3-2.25a.74.74 0 0 1-.3-.6v-6.75a.74.74 0 0 1 .3-.6l3-2.25a.68.68 0 0 0-.206.6v11.25a.68.68 0 0 0 .206.6"/><path fill="#9333EA" d="M20.666 6.124a.754.754 0 0 0-.934.086l-.052.052-3.188 3.057L13.695 12l-3.311 3.176-3.064 2.936-.053.053a.73.73 0 0 1-.517.21.75.75 0 0 1-.45-.15l-3-2.25a.75.75 0 0 0 1.02-.113L6 13.912l1.65-1.916 2.734-3.172 4.788-5.562A.74.74 0 0 1 15.74 3c.147 0 .292.043.416.124z"/><path fill="#A855F7" d="m20.666 17.876-4.5 3a.76.76 0 0 1-.986-.135l-4.796-5.565-2.734-3.18L6 10.084l-1.68-1.95a.754.754 0 0 0-1.02-.109l3-2.25a.75.75 0 0 1 .73-.097c.088.036.17.09.237.157l.053.053 3.064 2.936L13.695 12l2.801 2.685 3.184 3.053.052.052a.73.73 0 0 0 .518.21.75.75 0 0 0 .416-.124"/><path fill="#C084FC" d="M21 6.75v10.5a.75.75 0 0 1-.334.626l-4.5 3a.75.75 0 0 0 .334-.626V3.75a.76.76 0 0 0-.345-.626l4.511 3A.76.76 0 0 1 21 6.75"/><path fill="#7E22CE" d="M21 6.75v10.5a.75.75 0 0 1-.334.626l-4.5 3a.75.75 0 0 0 .334-.626V3.75a.76.76 0 0 0-.345-.626l4.511 3A.76.76 0 0 1 21 6.75" opacity=".4"/></svg>
