<svg xmlns="http://www.w3.org/2000/svg" fill="none" height="24" width="24" viewBox="0 0 25 24"><path fill="#FBBF24" d="m17.509 8.055-4.781 7.068a.41.41 0 0 1-.47.16.4.4 0 0 1-.208-.161.42.42 0 0 1-.07-.256l.19-3.902-3.089-.67a.4.4 0 0 1-.295-.254.43.43 0 0 1 .043-.391l4.782-7.068a.41.41 0 0 1 .47-.16.42.42 0 0 1 .278.416l-.191 3.903 3.089.67a.41.41 0 0 1 .295.254.42.42 0 0 1-.043.391"/><path fill="#14B8A6" d="M12.498 21.6a.96.96 0 0 0 .685-.286L17.7 16.76a.98.98 0 0 0-.685-1.664.97.97 0 0 0-.684.284l-3.833 3.864-8.35-8.419a.964.964 0 0 0-1.364.006.98.98 0 0 0-.006 1.375l9.036 9.108a.97.97 0 0 0 .684.286"/><path fill="#14B8A6" d="M12.502 21.6a.96.96 0 0 1-.685-.286L7.3 16.76a.98.98 0 0 1 .001-1.378.964.964 0 0 1 1.368-.002l3.833 3.864 8.35-8.419a.964.964 0 0 1 1.364.006.98.98 0 0 1 .006 1.375l-9.036 9.108a.96.96 0 0 1-.684.286"/></svg>
