<svg xmlns="http://www.w3.org/2000/svg" fill="none" height="24" width="24" viewBox="0 0 25 24"><path fill="#A855F7" d="m20.94 5.668-8.455 15.12a.46.46 0 0 1-.8.003L3.06 5.669a.46.46 0 0 1 .48-.68l8.465 1.513q.082.015.163 0l8.288-1.51a.46.46 0 0 1 .483.676"/><path fill="#FBBF24" d="M16.038 3.004 9.781 4.231a.23.23 0 0 0-.185.211l-.385 6.501a.23.23 0 0 0 .28.238l1.743-.402a.23.23 0 0 1 .277.27l-.518 2.534a.23.23 0 0 0 .292.266l1.076-.327a.23.23 0 0 1 .292.266l-.823 3.982c-.051.249.28.384.418.17l.093-.142 5.098-10.175a.23.23 0 0 0-.249-.329l-1.793.346a.23.23 0 0 1-.264-.289l1.17-4.057a.23.23 0 0 0-.265-.29"/></svg>
