<svg xmlns="http://www.w3.org/2000/svg" fill="none" height="24" width="24" viewBox="0 0 24 24"><path fill="#2563EB" fill-rule="evenodd" d="M12.417 15.621c0 .32.347.521.625.361l2.719-1.57a.42.42 0 0 0 .208-.36v-3.14a.417.417 0 0 0-.625-.362l-2.72 1.57a.42.42 0 0 0-.207.361zm2.51-5.792a.417.417 0 0 0 0-.722l-2.719-1.57a.42.42 0 0 0-.416 0L9.027 9.133a.417.417 0 0 0 0 .722l2.72 1.57a.42.42 0 0 0 .416 0zm-6.271.773a.417.417 0 0 0-.625.361v3.088c0 .149.08.287.208.361l2.72 1.57c.277.16.624-.04.624-.36v-3.089a.42.42 0 0 0-.208-.36z" clip-rule="evenodd"/><path fill="#93C5FD" d="m5.511 7.773 1.244.718a.42.42 0 0 0 .417 0l4.203-2.427a.42.42 0 0 0 .208-.361V4.267a.417.417 0 0 0-.625-.36L5.511 7.05a.417.417 0 0 0 0 .722m6.906-3.505v1.436c0 .149.08.286.208.36l4.204 2.428a.42.42 0 0 0 .416 0l1.244-.718a.417.417 0 0 0 0-.722l-5.447-3.145a.417.417 0 0 0-.625.361m5.037 5.306v4.854c0 .149.079.286.208.36l1.243.719c.278.16.625-.04.625-.361v-6.29a.417.417 0 0 0-.625-.36l-1.243.717a.42.42 0 0 0-.208.361m-.625 5.937-4.204 2.426a.42.42 0 0 0-.208.361v1.436c0 .32.347.521.625.36l5.447-3.144a.417.417 0 0 0 0-.722l-1.244-.718a.42.42 0 0 0-.416 0m-5.454 2.427L7.172 15.51a.42.42 0 0 0-.417 0l-1.244.718a.417.417 0 0 0 0 .722l5.447 3.145c.278.16.625-.04.625-.361v-1.436a.42.42 0 0 0-.208-.36m-4.828-3.511V9.573a.42.42 0 0 0-.209-.36l-1.243-.719a.417.417 0 0 0-.625.361v6.29c0 .32.347.521.625.36l1.243-.717a.42.42 0 0 0 .209-.361"/></svg>
