<svg xmlns="http://www.w3.org/2000/svg" fill="none" height="24" width="24" viewBox="0 0 24 24"><path fill="#60A5FA" fill-rule="evenodd" d="M5.724 20.594c-.175-.02-.35-.108-.526-.196a1 1 0 0 1-.201-.13q-.342-.288-.1-.773c0-.05.025-.1.05-.15s.05-.1.05-.151c-.401 0-.602-.2-.702-.502-.502-1.304-.402-2.308.602-3.31q.04-.081.078-.144c.069-.119.122-.212.122-.359 0-1.304.201-2.508 1.104-3.612a4.3 4.3 0 0 1 1.204-1.103c.2-.1.2-.201.1-.402a3.3 3.3 0 0 1-.702-1.605c-.08-.402.096-.803.273-1.204q.067-.15.128-.301c.1-.1.201-.201.301-.201.295-.074.535-.255.761-.426q.123-.095.243-.176c.702-.702 1.505-1.003 2.508-1.003.195 0 .295-.095.301-.192v-.01q.014-.056.032-.114.08-.269.22-.538a4 4 0 0 1 .35-.551l.301-.301c.154-.154.367-.19.503-.063l.007.007a.4.4 0 0 1 .092.156c.206.343.365.686.509.997l.012.025a14 14 0 0 0 .184.388l.004.007c.098.189.197.186.295.088.356-.152.531-.228.644-.173.11.053.16.229.259.575a9 9 0 0 1 .205 1.268c.137 1.648-.248 3.232-1.209 4.752-.05.1-.125.2-.2.3-.076.101-.15.202-.201.302-.1.2-.1.3.1.502a5.34 5.34 0 0 1 1.706 3.11 7 7 0 0 1 .058.564 8.4 8.4 0 0 1-.058 1.643q-.037.149-.037.23c0 .166.112.147.338.072a8 8 0 0 0 .552-.18A7.5 7.5 0 0 0 17 17.253a6 6 0 0 0 .439-.267l.254-.146c.427-.249.83-.483 1.281-.629a3 3 0 0 1 .572-.128c.104 0 .197-.012.285-.023l.072-.01q.087-.01.176-.011a.755.755 0 0 1 .771.747c0 .3-.2.502-.501.602a5 5 0 0 0-.803.229q-.139.05-.275.11a7 7 0 0 0-1.078.579q-.285.184-.553.386a9.7 9.7 0 0 1-1.71.943 12 12 0 0 1-1.602.562c-.1 0-.3.1-.401.201-.314.235-.628.287-.99.346q-.15.023-.314.055l-.255.024c-1.005.092-1.938.177-2.956.177l-.214-.001a1 1 0 0 1-.081.06l-.006-.009.03-.053-.067-.002a3.2 3.2 0 0 1-.666-.095 1.5 1.5 0 0 1-.234-.1 1.3 1.3 0 0 1-.167-.107 1 1 0 0 1-.199-.199.7.7 0 0 1-.102-.196q-.107-.43.092-.707l.024-.031a.8.8 0 0 1 .185-.165.6.6 0 0 0 .247-.054l.023-.01a.4.4 0 0 1 .131-.037.78.78 0 0 1-.4-.401c-.101-.1-.101-.1-.202 0a1 1 0 0 0-.05.124l-.001.002a2 2 0 0 0-.049.175c-.025.1-.05.2-.1.3-.144.48-.333.798-.6.979a1 1 0 0 1-.213.109 1.4 1.4 0 0 1-.523.075 3 3 0 0 1-.47-.058zm-.181 1.991a3.4 3.4 0 0 1-1.215-.385l-.025-.013c-.476-.238-1.102-.702-1.379-1.533a2.5 2.5 0 0 1-.115-.528 2.9 2.9 0 0 1-.394-.75c-.316-.831-.52-1.773-.358-2.774.14-.855.52-1.59 1.05-2.225.054-1.384.364-2.914 1.52-4.344q.205-.271.46-.543a6 6 0 0 1-.252-.978c-.14-.746.033-1.382.168-1.768a7 7 0 0 1 .25-.614c.04-.093.068-.155.094-.221a2 2 0 0 1 .45-.679c.04-.04.185-.187.358-.316.114-.086.382-.276.77-.384l.151-.112.004-.004.152-.112a5.2 5.2 0 0 1 2.627-1.35q.206-.372.461-.711.086-.114.186-.214l.301-.301c.425-.425 1.124-.806 1.974-.712.87.097 1.511.648 1.83 1.323q.07.12.136.246c.17.028.348.078.532.159.793.353 1.088 1.038 1.17 1.234a5.4 5.4 0 0 1 .226.707c.585 2.455.284 4.856-.986 7.099a7.4 7.4 0 0 1 1.385 3.104c.563-.314 1.326-.675 2.224-.787q.11-.014.22-.015h.002l.044-.006.032-.004.152-.018a2.9 2.9 0 0 1 1.233.13 2.75 2.75 0 0 1 1.87 2.6c0 1.451-1.065 2.23-1.87 2.5a2 2 0 0 1-.24.063c-.606.121-1.234.443-1.901.943l-.053.039c-1.186.83-2.55 1.403-3.782 1.754-.776.523-1.71.64-1.94.669l-.05.006q-.105.021-.211.031l-.266.024c-.991.091-2.012.185-3.126.185h-.023c-.32 0-.824 0-1.466-.16a2 2 0 0 1-.147-.043 3.5 3.5 0 0 1-.571-.25c-.6.16-1.186.122-1.662.038m3.508-1.41q.003 0-.001.001M15.304 3.73l.01.022q0-.003-.01-.022M6.498 8.38l.013-.006h-.002z" clip-rule="evenodd"/></svg>
